<svg width="184" height="215" viewBox="0 0 184 215" fill="none" xmlns="http://www.w3.org/2000/svg">
<path d="M183.022 70.6036L183.138 81.0995L173.986 75.9501L183.022 70.6036ZM76.1179 200.531L46.701 14.6236L48.4949 14.3394L77.9118 200.247L76.1179 200.531ZM106.129 205.321L178.217 77.287L179.798 78.1784L107.71 206.213L106.129 205.321ZM31.7138 1.8181H0V0H31.7138V1.8181ZM46.701 14.6236C45.5375 7.24878 39.1801 1.8181 31.7138 1.8181V0C40.071 0 47.1919 6.08156 48.4949 14.3394L46.701 14.6236ZM77.9118 200.247C80.1602 214.455 99.0685 217.855 106.129 205.321L107.71 206.213C99.8078 220.249 78.633 216.441 76.1179 200.531L77.9118 200.247Z" fill="#E7E7E7" fill-opacity="0.1"/>
</svg>
