<svg width="19" height="19" viewBox="0 0 19 19" fill="none" xmlns="http://www.w3.org/2000/svg">
<path d="M10.625 9.25C10.625 9.88281 10.0977 10.375 9.5 10.375C8.86719 10.375 8.375 9.88281 8.375 9.25C8.375 8.65234 8.86719 8.125 9.5 8.125C10.0977 8.125 10.625 8.65234 10.625 9.25ZM4.4375 9.25C4.4375 6.47266 6.6875 4.1875 9.5 4.1875C12.2773 4.1875 14.5625 6.47266 14.5625 9.25C14.5625 12.0625 12.2773 14.3125 9.5 14.3125C6.6875 14.3125 4.4375 12.0625 4.4375 9.25ZM9.5 12.0625C11.0469 12.0625 12.3125 10.832 12.3125 9.25C12.3125 7.70312 11.0469 6.4375 9.5 6.4375C7.91797 6.4375 6.6875 7.70312 6.6875 9.25C6.6875 10.832 7.91797 12.0625 9.5 12.0625ZM18.5 9.25C18.5 14.2422 14.457 18.25 9.5 18.25C4.50781 18.25 0.5 14.2422 0.5 9.25C0.5 4.29297 4.50781 0.25 9.5 0.25C14.457 0.25 18.5 4.29297 18.5 9.25ZM9.5 2.5C5.73828 2.5 2.75 5.52344 2.75 9.25C2.75 12.9766 5.73828 16 9.5 16C13.2266 16 16.25 12.9766 16.25 9.25C16.25 5.52344 13.2266 2.5 9.5 2.5Z" fill="white"/>
</svg>
