<svg width="54" height="77" viewBox="0 0 54 77" fill="none" xmlns="http://www.w3.org/2000/svg">
<rect y="0.113281" width="54" height="76" rx="20" fill="#213452"/>
<path d="M20.95 29.6469C21.9125 29.6469 22.8063 30.1969 23.3219 31.0219C23.8031 31.8812 23.8031 32.9469 23.3219 33.7719C22.8063 34.6312 21.9125 35.1469 20.95 35.1469C19.9531 35.1469 19.0594 34.6312 18.5438 33.7719C18.0625 32.9469 18.0625 31.8812 18.5438 31.0219C19.0594 30.1969 19.9531 29.6469 20.95 29.6469ZM33.6 29.6469C34.5625 29.6469 35.4563 30.1969 35.9719 31.0219C36.4531 31.8812 36.4531 32.9469 35.9719 33.7719C35.4563 34.6312 34.5625 35.1469 33.6 35.1469C32.6031 35.1469 31.7094 34.6312 31.1938 33.7719C30.7125 32.9469 30.7125 31.8812 31.1938 31.0219C31.7094 30.1969 32.6031 29.6469 33.6 29.6469ZM16 39.925C16 37.8969 17.6156 36.2469 19.6438 36.2469H21.1219C21.6719 36.2469 22.1875 36.3844 22.6688 36.5906C22.6 36.8312 22.6 37.1062 22.6 37.3469C22.6 38.6875 23.15 39.8562 24.0781 40.6469C24.0781 40.6469 24.0781 40.6469 24.0438 40.6469H16.7219C16.3094 40.6469 16 40.3375 16 39.925ZM29.9219 40.6469H29.8875C30.8156 39.8562 31.3656 38.6875 31.3656 37.3469C31.3656 37.1062 31.3656 36.8312 31.3313 36.5906C31.7781 36.3844 32.2938 36.2469 32.8438 36.2469H34.3219C36.35 36.2469 38 37.8969 38 39.925C38 40.3375 37.6563 40.6469 37.2438 40.6469H29.9219ZM23.7 37.3469C23.7 36.1781 24.3188 35.1125 25.35 34.4937C26.3469 33.9094 27.6188 33.9094 28.65 34.4937C29.6469 35.1125 30.3 36.1781 30.3 37.3469C30.3 38.55 29.6469 39.6156 28.65 40.2344C27.6188 40.8187 26.3469 40.8187 25.35 40.2344C24.3188 39.6156 23.7 38.55 23.7 37.3469ZM20.4 46.3531C20.4 43.8094 22.4281 41.7469 24.9719 41.7469H28.9938C31.5375 41.7469 33.6 43.8094 33.6 46.3531C33.6 46.8344 33.1875 47.2469 32.6719 47.2469H21.2938C20.8125 47.2469 20.4 46.8688 20.4 46.3531Z" fill="white"/>
</svg>
