<svg width="18" height="17" viewBox="0 0 18 17" fill="none" xmlns="http://www.w3.org/2000/svg">
<path d="M9.26389 0.0928829C12.2014 0.0928829 14.913 1.67464 16.3979 4.22483C17.8829 6.80729 17.8829 9.93853 16.3979 12.4887C14.913 15.0712 12.2014 16.6207 9.26389 16.6207C6.29405 16.6207 3.58247 15.0712 2.09755 12.4887C0.61263 9.93853 0.61263 6.80729 2.09755 4.22483C3.58247 1.67464 6.29405 0.0928829 9.26389 0.0928829ZM8.48915 3.96658V8.35677C8.48915 8.61502 8.61827 8.87326 8.81196 9.00239L11.9109 11.0684C12.266 11.3266 12.7502 11.2298 13.0085 10.8747C13.2344 10.5196 13.1376 10.0354 12.7825 9.77713L10.0386 7.9694V3.96658C10.0386 3.54693 9.68354 3.19184 9.26389 3.19184C8.81196 3.19184 8.48915 3.54693 8.48915 3.96658Z" fill="#213452"/>
</svg>
