<svg width="42" height="60" viewBox="0 0 42 60" fill="none" xmlns="http://www.w3.org/2000/svg">
<rect width="42" height="60" rx="9.4" fill="#48DBB4"/>
<path d="M21.1229 31.0006C19.5881 31.0006 18.3225 29.762 18.3495 28.2002C18.3495 26.6653 19.5881 25.3998 21.1229 25.3998C22.6578 25.3998 23.9234 26.6653 23.9234 28.2002C23.9234 29.762 22.6847 31.0006 21.1229 31.0006ZM22.4693 31.8623C24.5965 31.8623 26.3199 33.4779 26.3199 35.4705C26.3199 35.8744 25.9698 36.1706 25.539 36.1706H16.7338C16.303 36.1706 15.9799 35.8744 15.9799 35.4705C15.9799 33.4779 17.6763 31.8623 19.8035 31.8623H22.4693ZM26.3199 26.6923C25.1082 26.6923 24.1657 25.7498 24.1657 24.5381C24.1657 23.3533 25.1082 22.3839 26.3199 22.3839C27.5047 22.3839 28.474 23.3533 28.474 24.5381C28.474 25.7498 27.5047 26.6923 26.3199 26.6923ZM17.4609 28.2002C17.4609 29.1157 17.8109 29.9504 18.3764 30.5698H12.991C12.7217 30.5698 12.5332 30.3543 12.5332 30.0851C12.5332 28.6849 13.5834 27.5539 14.9028 27.5539H16.5453C16.8954 27.5539 17.2185 27.6347 17.5147 27.7963C17.4878 27.9309 17.4609 28.0655 17.4609 28.2002ZM15.9799 26.6923C14.7682 26.6923 13.8257 25.7498 13.8257 24.5381C13.8257 23.3533 14.7682 22.3839 15.9799 22.3839C17.1647 22.3839 18.134 23.3533 18.134 24.5381C18.134 25.7498 17.1647 26.6923 15.9799 26.6923ZM27.37 27.5539C28.6895 27.5539 29.7665 28.6849 29.7665 30.0851C29.7665 30.3543 29.5511 30.5698 29.2818 30.5698H23.8964C24.4619 29.9504 24.785 29.1157 24.785 28.2002C24.785 28.0655 24.7581 27.9309 24.7581 27.7963C25.0543 27.6616 25.3774 27.5539 25.7275 27.5539H27.37Z" fill="white"/>
</svg>
