<svg width="55" height="77" viewBox="0 0 55 77" fill="none" xmlns="http://www.w3.org/2000/svg">
<rect x="0.625" y="0.113281" width="54" height="76" rx="20" fill="#213452"/>
<path d="M23.775 37.9633H23.225C22.6063 37.9633 22.125 37.482 22.125 36.8633C22.125 36.2789 22.6063 35.7633 23.225 35.7633H24.1875C25.1844 32.9102 27.9688 30.8133 31.2 30.8133H32.025C32.6094 30.8133 33.125 31.3289 33.125 31.9133C33.125 32.532 32.6094 33.0133 32.025 33.0133H31.2C29.2063 33.0133 27.4531 34.1477 26.5938 35.7633H30.925C31.5094 35.7633 32.025 36.2789 32.025 36.8633C32.025 37.482 31.5094 37.9633 30.925 37.9633H25.975C25.975 38.0664 25.975 38.1695 25.975 38.2383V38.7883C25.975 38.8914 25.975 38.9945 25.975 39.0633H30.925C31.5094 39.0633 32.025 39.5789 32.025 40.1633C32.025 40.782 31.5094 41.2633 30.925 41.2633H26.5938C27.4531 42.9133 29.2063 44.0133 31.2 44.0133H32.025C32.6094 44.0133 33.125 44.5289 33.125 45.1133C33.125 45.732 32.6094 46.2133 32.025 46.2133H31.2C27.9688 46.2133 25.1844 44.1508 24.1875 41.2633H23.225C22.6063 41.2633 22.125 40.782 22.125 40.1633C22.125 39.5789 22.6063 39.0633 23.225 39.0633H23.775C23.775 38.9945 23.775 38.8914 23.775 38.7883V38.2383C23.775 38.1695 23.775 38.0664 23.775 37.9633Z" fill="white"/>
</svg>
