<svg width="13" height="17" viewBox="0 0 13 17" fill="none" xmlns="http://www.w3.org/2000/svg">
<path d="M7.87695 7.89583H11.304C11.7018 7.89583 12.069 8.17122 12.1914 8.53841C12.3444 8.9362 12.2526 9.36458 11.9466 9.63997L4.11328 16.4941C3.74609 16.7695 3.25651 16.8001 2.88932 16.5247C2.52214 16.2799 2.36914 15.7904 2.55273 15.362L4.90885 9.85417H1.48177C1.08398 9.85417 0.716797 9.60938 0.594401 9.24219C0.441406 8.8444 0.533203 8.41602 0.839193 8.14063L8.67253 1.28646C9.03971 1.01107 9.5293 0.980469 9.89648 1.25586C10.2637 1.50065 10.4167 1.99023 10.2331 2.41862L7.87695 7.89583Z" fill="#28BAEB"/>
</svg>
