<svg width="51" height="67" viewBox="0 0 51 67" fill="none" xmlns="http://www.w3.org/2000/svg">
<path d="M15.0415 3.94957L14.5475 4.16238C7.49124 7.20206 3.96313 8.7219 1.98156 11.7331C0 14.7443 0 18.5859 0 26.269V35.6371C0 40.7276 0 43.2728 0.983082 45.5535C1.96616 47.8341 3.80294 49.5688 7.47649 53.0381C12.7819 58.0486 18.4342 63.3319 20.0213 64.6358C21.9886 66.2521 26.7468 66.8857 30.4174 65.7401C30.6283 65.6742 30.7338 65.6413 32.0498 64.8179C33.3658 63.9945 33.7588 63.577 34.5449 62.7418L43.8132 52.8954C47.0451 49.4619 48.661 47.7452 49.5088 45.6076C50.3566 43.4701 50.3566 41.1125 50.3566 36.3972V26.7428C50.3566 18.8421 50.3566 14.8918 48.284 11.8338C46.2115 8.77578 42.5422 7.31224 35.2038 4.38515L33.4824 3.69853C28.9074 1.87371 26.6199 0.961303 24.2234 0.993926C21.8269 1.02655 19.5651 2.00089 15.0415 3.94957Z" fill="#253D62"/>
<path d="M14.6839 4.47918L15.1779 4.26637C19.7274 2.30654 21.9162 1.37031 24.2281 1.33884C26.54 1.30737 28.7535 2.18367 33.3546 4.01893L35.076 4.70555C38.7523 6.17191 41.4835 7.26182 43.5566 8.3649C45.6222 9.46397 47.005 10.5615 47.9985 12.0273C48.9919 13.4932 49.499 15.1842 49.7546 17.51C50.0111 19.8442 50.0116 22.7849 50.0116 26.7428V36.3972C50.0116 41.1393 50.006 43.4184 49.1881 45.4805C48.3703 47.5425 46.8123 49.2059 43.5621 52.6589L34.2938 62.5054L34.2868 62.5127C33.517 63.3306 33.1451 63.7257 31.8668 64.5255C30.5857 65.3271 30.4805 65.3596 30.3309 65.4057C30.3255 65.4074 30.3201 65.4091 30.3146 65.4108C28.5327 65.967 26.4748 66.0937 24.6199 65.881C22.7548 65.6671 21.15 65.1167 20.2403 64.3693C18.665 63.0752 13.0247 57.8035 7.71333 52.7873C4.01883 49.2982 2.24825 47.6171 1.29985 45.4169C0.351487 43.2168 0.344944 40.7568 0.344944 35.6371V26.269C0.344944 22.42 0.345407 19.5605 0.590651 17.2861C0.834999 15.02 1.31981 13.3662 2.26971 11.9227C3.21962 10.4793 4.5466 9.37973 6.53116 8.25877C8.52301 7.13369 11.149 6.00196 14.6839 4.47918Z" stroke="url(#paint0_linear_1_1405)" stroke-opacity="0.4" stroke-width="0.689888"/>
<path d="M15.2969 32.3653C15.2969 26.6567 19.9123 22.0008 25.6614 22.0008C31.3699 22.0008 36.0259 26.6567 36.0259 32.3653C36.0259 38.1144 31.3699 42.7298 25.6614 42.7298C19.9123 42.7298 15.2969 38.1144 15.2969 32.3653ZM30.3173 30.5839C30.7626 30.1386 30.7626 29.4503 30.3173 29.0049C29.8719 28.5596 29.1837 28.5596 28.7383 29.0049L24.3658 33.3775L22.5439 31.5961C22.0986 31.1507 21.4103 31.1507 20.965 31.5961C20.5196 32.0414 20.5196 32.7297 20.965 33.175L23.5561 35.7662C24.0014 36.2115 24.6897 36.2115 25.135 35.7662L30.3173 30.5839Z" fill="white"/>
<defs>
<linearGradient id="paint0_linear_1_1405" x1="4.01192" y1="-4.11811" x2="45.119" y2="51.6158" gradientUnits="userSpaceOnUse">
<stop stop-color="#C3C3C3"/>
<stop offset="1" stop-color="white" stop-opacity="0"/>
</linearGradient>
</defs>
</svg>
