<svg width="277" height="500" viewBox="0 0 277 500" fill="none" xmlns="http://www.w3.org/2000/svg">
<path d="M194.781 220.933L118.253 8.81751L119.526 8.35823L196.054 220.473L194.781 220.933ZM96.6765 9.86959L-27.6883 499.372L-29 499.039L95.3646 9.53635L96.6765 9.86959ZM233.901 152.789L219.027 219.396L217.707 219.101L232.58 152.494L233.901 152.789ZM244.927 142.6H276.157V143.954H244.927V142.6ZM118.253 8.81751C114.473 -1.65828 99.4188 -0.92418 96.6765 9.86959L95.3646 9.53635C98.4354 -2.55045 115.294 -3.37245 119.526 8.35823L118.253 8.81751ZM196.054 220.473C199.891 231.109 215.243 230.137 217.707 219.101L219.027 219.396C216.268 231.754 199.078 232.843 194.781 220.933L196.054 220.473ZM232.58 152.494C233.871 146.712 239.002 142.6 244.927 142.6V143.954C239.636 143.954 235.054 147.625 233.901 152.789L232.58 152.494Z" fill="url(#paint0_linear_1_830)" fill-opacity="0.1"/>
<defs>
<linearGradient id="paint0_linear_1_830" x1="81.3615" y1="105.753" x2="5.30415" y2="365.439" gradientUnits="userSpaceOnUse">
<stop stop-color="#E7E7E7"/>
<stop offset="1" stop-color="#E7E7E7" stop-opacity="0"/>
</linearGradient>
</defs>
</svg>
