<svg width="19" height="17" viewBox="0 0 19 17" fill="none" xmlns="http://www.w3.org/2000/svg">
<path d="M0.5 5.96484V5.78906C0.5 3.32812 2.25781 1.21875 4.68359 0.832031C6.26562 0.550781 7.91797 1.07812 9.07812 2.23828L9.5 2.625L9.88672 2.23828C11.0469 1.07812 12.6992 0.550781 14.2812 0.832031C16.707 1.21875 18.5 3.32812 18.5 5.78906V5.96484C18.5 7.44141 17.8672 8.84766 16.8125 9.83203L10.4492 15.7734C10.2031 16.0195 9.85156 16.125 9.5 16.125C9.11328 16.125 8.76172 16.0195 8.51562 15.7734L2.15234 9.83203C1.09766 8.84766 0.5 7.44141 0.5 5.96484Z" fill="#213452"/>
</svg>
