<svg width="11" height="14" viewBox="0 0 11 14" fill="none" xmlns="http://www.w3.org/2000/svg">
<path d="M6.71875 6.3125H9.5625C9.89258 6.3125 10.1973 6.54102 10.2988 6.8457C10.4258 7.17578 10.3496 7.53125 10.0957 7.75977L3.5957 13.4473C3.29102 13.6758 2.88477 13.7012 2.58008 13.4727C2.27539 13.2695 2.14844 12.8633 2.30078 12.5078L4.25586 7.9375H1.41211C1.08203 7.9375 0.777344 7.73438 0.675781 7.42969C0.548828 7.09961 0.625 6.74414 0.878906 6.51562L7.37891 0.828125C7.68359 0.599609 8.08984 0.574219 8.39453 0.802734C8.69922 1.00586 8.82617 1.41211 8.67383 1.76758L6.71875 6.3125Z" fill="white"/>
</svg>
