<svg width="8" height="11" viewBox="0 0 8 11" fill="none" xmlns="http://www.w3.org/2000/svg">
<path d="M4.94106 4.94095H6.99989C7.23886 4.94095 7.45944 5.10639 7.53297 5.32698C7.62489 5.56595 7.56974 5.8233 7.38591 5.98874L2.68003 10.1064C2.45944 10.2718 2.16533 10.2902 1.94474 10.1248C1.72415 9.97771 1.63224 9.68359 1.74253 9.42624L3.15797 6.11742H1.09915C0.860179 6.11742 0.639591 5.97036 0.566062 5.74977C0.47415 5.5108 0.529297 5.25345 0.71312 5.08801L5.419 0.970358C5.63959 0.804917 5.93371 0.786535 6.1543 0.951976C6.37489 1.09903 6.4668 1.39315 6.3565 1.65051L4.94106 4.94095Z" fill="#28BAEB"/>
</svg>
