<svg width="13" height="14" viewBox="0 0 13 14" fill="none" xmlns="http://www.w3.org/2000/svg">
<path d="M7.3125 7.125C7.3125 7.58203 6.93164 7.9375 6.5 7.9375C6.04297 7.9375 5.6875 7.58203 5.6875 7.125C5.6875 6.69336 6.04297 6.3125 6.5 6.3125C6.93164 6.3125 7.3125 6.69336 7.3125 7.125ZM2.84375 7.125C2.84375 5.11914 4.46875 3.46875 6.5 3.46875C8.50586 3.46875 10.1562 5.11914 10.1562 7.125C10.1562 9.15625 8.50586 10.7812 6.5 10.7812C4.46875 10.7812 2.84375 9.15625 2.84375 7.125ZM6.5 9.15625C7.61719 9.15625 8.53125 8.26758 8.53125 7.125C8.53125 6.00781 7.61719 5.09375 6.5 5.09375C5.35742 5.09375 4.46875 6.00781 4.46875 7.125C4.46875 8.26758 5.35742 9.15625 6.5 9.15625ZM13 7.125C13 10.7305 10.0801 13.625 6.5 13.625C2.89453 13.625 0 10.7305 0 7.125C0 3.54492 2.89453 0.625 6.5 0.625C10.0801 0.625 13 3.54492 13 7.125ZM6.5 2.25C3.7832 2.25 1.625 4.43359 1.625 7.125C1.625 9.81641 3.7832 12 6.5 12C9.19141 12 11.375 9.81641 11.375 7.125C11.375 4.43359 9.19141 2.25 6.5 2.25Z" fill="white"/>
</svg>
