<svg width="11" height="10" viewBox="0 0 11 10" fill="none" xmlns="http://www.w3.org/2000/svg">
<path d="M5.4959 9.24482C2.94629 9.24482 0.899414 7.19795 0.899414 4.64834C0.899414 2.11668 2.94629 0.0518533 5.4959 0.0518533C8.02756 0.0518533 10.0924 2.11668 10.0924 4.64834C10.0924 7.19795 8.02756 9.24482 5.4959 9.24482ZM5.06498 4.64834C5.06498 4.79198 5.1368 4.93562 5.24453 5.00744L6.96821 6.15656C7.16572 6.3002 7.43504 6.24634 7.56073 6.04883C7.70437 5.85133 7.6505 5.582 7.453 5.43836L5.92682 4.43288V2.20646C5.92682 1.97304 5.72931 1.77554 5.47794 1.77554C5.24453 1.77554 5.04702 1.97304 5.04702 2.20646L5.06498 4.64834Z" fill="#213452"/>
</svg>
