<svg width="20" height="19" viewBox="0 0 20 19" fill="none" xmlns="http://www.w3.org/2000/svg">
<path d="M9.71484 0.410156C12.9141 0.410156 15.8672 2.13281 17.4844 4.91016C19.1016 7.72266 19.1016 11.1328 17.4844 13.9102C15.8672 16.7227 12.9141 18.4102 9.71484 18.4102C6.48047 18.4102 3.52734 16.7227 1.91016 13.9102C0.292969 11.1328 0.292969 7.72266 1.91016 4.91016C3.52734 2.13281 6.48047 0.410156 9.71484 0.410156ZM8.87109 4.62891V9.41016C8.87109 9.69141 9.01172 9.97266 9.22266 10.1133L12.5977 12.3633C12.9844 12.6445 13.5117 12.5391 13.793 12.1523C14.0391 11.7656 13.9336 11.2383 13.5469 10.957L10.5586 8.98828V4.62891C10.5586 4.17188 10.1719 3.78516 9.71484 3.78516C9.22266 3.78516 8.87109 4.17188 8.87109 4.62891Z" fill="white"/>
</svg>
