<svg width="13" height="13" viewBox="0 0 13 13" fill="none" xmlns="http://www.w3.org/2000/svg">
<path d="M9.17577 6.50013C9.17577 7.89229 8.0283 9.03346 6.59716 9.03346C5.16603 9.03346 4.01855 7.89229 4.01855 6.50013C4.01855 5.10797 5.16603 3.9668 6.59716 3.9668C8.0283 3.9668 9.17577 5.10797 9.17577 6.50013Z" fill="white" stroke="#28BAEB"/>
<path d="M6.49996 0C2.91068 0 0 2.91067 0 6.5C0 10.0893 2.91068 13 6.49996 13C10.0894 13 13 10.0893 13 6.5C13 2.91067 10.0894 0 6.49996 0ZM6.49996 11.7C3.62826 11.7 1.30001 9.37166 1.30001 6.5C1.30001 3.62825 3.62826 1.3 6.49996 1.3C9.37168 1.3 11.7 3.62825 11.7 6.5C11.7 9.37166 9.37168 11.7 6.49996 11.7Z" fill="#28BAEB"/>
</svg>
