<svg width="24" height="24" viewBox="0 0 24 24" fill="none" xmlns="http://www.w3.org/2000/svg">
<path d="M16.449 11.7509C16.449 14.3467 14.3447 16.4509 11.749 16.4509C9.15322 16.4509 7.04896 14.3467 7.04896 11.7509C7.04896 9.15517 9.15322 7.05091 11.749 7.05091C14.3447 7.05091 16.449 9.15517 16.449 11.7509Z" fill="white" stroke="#28BAEB" stroke-width="1.56667"/>
<path d="M11.5771 0C5.18424 0 0 5.26159 0 11.75C0 18.2384 5.18424 23.5 11.5771 23.5C17.9702 23.5 23.1544 18.2384 23.1544 11.75C23.1544 5.26159 17.9702 0 11.5771 0ZM11.5771 21.15C6.46231 21.15 2.31545 16.9411 2.31545 11.75C2.31545 6.55876 6.46231 2.35 11.5771 2.35C16.692 2.35 20.8389 6.55876 20.8389 11.75C20.8389 16.9411 16.692 21.15 11.5771 21.15Z" fill="#28BAEB"/>
</svg>
