<svg width="10" height="8" viewBox="0 0 10 8" fill="none" xmlns="http://www.w3.org/2000/svg">
<path d="M5 6.125C5.3125 6.125 5.64453 6.02734 5.91797 5.8125L10 2.64844V7.0625C10 7.58984 9.57031 8 9.0625 8H0.9375C0.410156 8 0 7.58984 0 7.0625V2.64844L4.0625 5.8125C4.33594 6.02734 4.66797 6.125 5 6.125ZM0.3125 2.10156C0.117188 1.94531 0 1.69141 0 1.4375C0 0.929688 0.410156 0.5 0.9375 0.5H9.0625C9.57031 0.5 10 0.929688 10 1.4375C10 1.69141 9.86328 1.94531 9.66797 2.10156L5.52734 5.32422C5.21484 5.55859 4.76562 5.55859 4.45312 5.32422L0.3125 2.10156Z" fill="white" fill-opacity="0.3"/>
</svg>
