<svg width="15" height="12" viewBox="0 0 15 12" fill="none" xmlns="http://www.w3.org/2000/svg">
<path d="M7.54525 8.40919C7.98356 8.40919 8.44927 8.27222 8.83279 7.97088L14.5582 3.53298V9.72413C14.5582 10.4638 13.9556 11.0391 13.2433 11.0391H1.8472C1.10755 11.0391 0.532265 10.4638 0.532265 9.72413V3.53298L6.23032 7.97088C6.61384 8.27222 7.07955 8.40919 7.54525 8.40919ZM0.970577 2.76593C0.696632 2.54677 0.532265 2.19065 0.532265 1.83452C0.532265 1.12226 1.10755 0.519583 1.8472 0.519583H13.2433C13.9556 0.519583 14.5582 1.12226 14.5582 1.83452C14.5582 2.19065 14.3665 2.54677 14.0925 2.76593L8.2849 7.28602C7.84659 7.61475 7.21652 7.61475 6.77821 7.28602L0.970577 2.76593Z" fill="white"/>
</svg>
