<svg width="41" height="59" viewBox="0 0 41 59" fill="none" xmlns="http://www.w3.org/2000/svg">
<rect x="0.0372314" y="0.970215" width="40.6005" height="57.1414" rx="15.0372" fill="#213452"/>
<path d="M16.9916 29.1651C16.5263 29.1651 16.1645 28.8033 16.1645 28.338C16.1645 27.8987 16.5263 27.511 16.9916 27.511H17.7152C18.4647 25.3658 20.5324 23.7893 22.9876 23.7893H23.6079C24.0473 23.7893 24.435 24.177 24.435 24.6163C24.435 25.0815 24.0473 25.4434 23.6079 25.4434H22.9876C21.4886 25.4434 20.1705 26.2963 19.5244 27.511H22.7809C23.2203 27.511 23.6079 27.8987 23.6079 28.338C23.6079 28.8033 23.2203 29.1651 22.7809 29.1651H19.0592C19.0592 29.2426 19.0592 29.3202 19.0592 29.3718V29.7854C19.0592 29.8629 19.0592 29.9404 19.0592 29.9921H22.7809C23.2203 29.9921 23.6079 30.3798 23.6079 30.8192C23.6079 31.2844 23.2203 31.6462 22.7809 31.6462H19.5244C20.1705 32.8868 21.4886 33.7138 22.9876 33.7138H23.6079C24.0473 33.7138 24.435 34.1015 24.435 34.5409C24.435 35.0061 24.0473 35.3679 23.6079 35.3679H22.9876C20.5324 35.3679 18.4647 33.8172 17.7152 31.6462H16.9916C16.5263 31.6462 16.1645 31.2844 16.1645 30.8192C16.1645 30.3798 16.5263 29.9921 16.9916 29.9921H17.4051C17.4051 29.9404 17.4051 29.8629 17.4051 29.7854V29.3718C17.4051 29.3202 17.4051 29.2426 17.4051 29.1651H16.9916Z" fill="white"/>
</svg>
