<svg width="18" height="19" viewBox="0 0 18 19" fill="none" xmlns="http://www.w3.org/2000/svg">
<path d="M17.1172 6.28125C17.2578 6.59766 17.1523 6.91406 16.9062 7.16016L15.3945 8.53125C15.4297 8.8125 15.4297 9.12891 15.4297 9.41016C15.4297 9.72656 15.4297 10.043 15.3945 10.3242L16.9062 11.6953C17.1523 11.9062 17.2578 12.2578 17.1172 12.5742C16.9766 12.9961 16.8008 13.3828 16.5898 13.7695L16.4141 14.0508C16.168 14.4375 15.9219 14.8242 15.6406 15.1406C15.4297 15.4219 15.0781 15.4922 14.7617 15.3867L12.8281 14.7891C12.3359 15.1406 11.8086 15.4219 11.2812 15.668L10.8242 17.6719C10.7539 17.9883 10.5078 18.2344 10.1914 18.3047C9.69922 18.375 9.20703 18.4102 8.67969 18.4102C8.1875 18.4102 7.69531 18.375 7.20312 18.3047C6.88672 18.2344 6.64062 17.9883 6.57031 17.6719L6.11328 15.668C5.55078 15.4219 5.05859 15.1406 4.56641 14.7891L2.63281 15.3867C2.31641 15.4922 1.96484 15.4219 1.75391 15.1758C1.47266 14.8242 1.22656 14.4375 0.980469 14.0508L0.804688 13.7695C0.59375 13.3828 0.417969 12.9961 0.277344 12.5742C0.136719 12.2578 0.242188 11.9414 0.488281 11.6953L2 10.3242C1.96484 10.043 1.96484 9.72656 1.96484 9.41016C1.96484 9.12891 1.96484 8.8125 2 8.53125L0.488281 7.16016C0.242188 6.91406 0.136719 6.59766 0.277344 6.28125C0.417969 5.85938 0.59375 5.47266 0.804688 5.08594L0.980469 4.80469C1.22656 4.41797 1.47266 4.03125 1.75391 3.67969C1.96484 3.43359 2.31641 3.36328 2.63281 3.46875L4.56641 4.06641C5.05859 3.71484 5.58594 3.39844 6.11328 3.1875L6.57031 1.18359C6.64062 0.867188 6.88672 0.621094 7.20312 0.550781C7.69531 0.480469 8.1875 0.410156 8.71484 0.410156C9.20703 0.410156 9.69922 0.480469 10.1914 0.550781C10.5078 0.585938 10.7539 0.867188 10.8242 1.18359L11.2812 3.1875C11.8438 3.39844 12.3359 3.71484 12.8281 4.06641L14.7617 3.46875C15.0781 3.36328 15.4297 3.43359 15.6406 3.67969C15.9219 4.03125 16.168 4.41797 16.4141 4.80469L16.5898 5.08594C16.8008 5.47266 16.9766 5.85938 17.1523 6.28125H17.1172ZM8.71484 12.2227C9.69922 12.2227 10.6133 11.6953 11.1406 10.8164C11.6328 9.97266 11.6328 8.88281 11.1406 8.00391C10.6133 7.16016 9.69922 6.59766 8.71484 6.59766C7.69531 6.59766 6.78125 7.16016 6.25391 8.00391C5.76172 8.88281 5.76172 9.97266 6.25391 10.8164C6.78125 11.6953 7.69531 12.2227 8.71484 12.2227Z" fill="white"/>
</svg>
