<svg width="19" height="19" viewBox="0 0 19 19" fill="none" xmlns="http://www.w3.org/2000/svg">
<path d="M12.875 9.25C12.875 10.0586 12.8047 10.7969 12.7344 11.5H10.3789L10.8359 10.0234C11.2227 8.72266 10.0273 7.52734 8.72656 7.91406L6.125 8.6875C6.125 8.125 6.16016 7.5625 6.23047 7H12.7344C12.8047 7.73828 12.875 8.47656 12.875 9.25ZM1.20312 10.1289C0.957031 10.1992 0.746094 10.3398 0.570312 10.4805C0.5 10.0938 0.5 9.67188 0.5 9.25C0.5 8.47656 0.570312 7.73828 0.78125 7H5.10547C5.03516 7.66797 5 8.33594 5 9.00391L1.20312 10.1289ZM8.62109 17.5469L10.0625 12.625H12.5938C12.3828 13.9258 12.0312 15.0508 11.6445 15.9648C11.2578 16.8086 10.8711 17.4062 10.4492 17.793C10.0625 18.1445 9.74609 18.25 9.5 18.25C9.21875 18.25 8.90234 18.1445 8.51562 17.793C8.55078 17.7227 8.58594 17.6172 8.62109 17.5469ZM13.8594 7H18.1836C18.3945 7.73828 18.5 8.47656 18.5 9.25C18.5 10.0586 18.3945 10.7969 18.1836 11.5H13.8594C13.9297 10.7969 14 10.0234 14 9.25C14 8.47656 13.9297 7.73828 13.8594 7ZM17.832 5.875H13.7188C13.3672 3.66016 12.6641 1.76172 11.7852 0.566406C14.5273 1.30469 16.7773 3.27344 17.832 5.875ZM6.37109 5.875C6.58203 4.60938 6.93359 3.48438 7.32031 2.57031C7.70703 1.72656 8.09375 1.12891 8.51562 0.742188C8.90234 0.390625 9.21875 0.25 9.5 0.25C9.74609 0.25 10.0625 0.390625 10.4492 0.742188C10.8711 1.12891 11.2578 1.72656 11.6445 2.57031C12.0312 3.48438 12.3828 4.60938 12.5938 5.875H6.37109ZM5.24609 5.875H1.13281C2.1875 3.27344 4.4375 1.30469 7.17969 0.566406C6.30078 1.76172 5.59766 3.66016 5.24609 5.875ZM17.832 12.625C16.7773 15.2617 14.5273 17.2305 11.7852 17.9688C12.6992 16.7734 13.3672 14.875 13.7188 12.625H17.832ZM1.87109 11.1133L9.04297 9.00391C9.46484 8.86328 9.88672 9.25 9.74609 9.70703L7.63672 16.8789C7.49609 17.3711 6.82812 17.4414 6.58203 16.9844L5.59766 14.9805C5.5625 14.9102 5.52734 14.875 5.49219 14.8398L2.39844 17.9336C1.97656 18.3906 1.23828 18.3906 0.816406 17.9336C0.359375 17.5117 0.359375 16.7734 0.816406 16.3516L3.91016 13.2578C3.875 13.2227 3.83984 13.1875 3.76953 13.1523L1.76562 12.168C1.30859 11.9219 1.37891 11.2539 1.87109 11.1133Z" fill="white"/>
</svg>
