<svg width="121" height="40" viewBox="0 0 121 40" fill="none" xmlns="http://www.w3.org/2000/svg">
<path d="M17.7002 20.0394C9.91243 20.4399 0 13.0098 0 13.0098V39.4196H121V1.80641C108.648 8.92682 103.705 1.0667 88.211 1.80641C77.3018 2.32724 74.4577 16.2814 64.4173 13.0098C53.0105 9.29296 46.8004 -0.669135 34.8201 1.80641C23.6879 4.10674 29.2132 19.4472 17.7002 20.0394Z" fill="url(#paint0_linear_1_621)"/>
<path d="M0.573242 12.9432C0.573242 12.9432 10.3682 20.3306 18.0638 19.9323C29.4403 19.3436 23.9805 4.09128 34.9808 1.80417C46.8191 -0.657151 52.9556 9.24768 64.2273 12.9432C74.1487 16.1959 76.9592 2.322 87.7391 1.80417C103.05 1.0687 107.934 8.88366 120.14 1.80417" stroke="#48DBB4" stroke-width="0.873646" stroke-linecap="round"/>
<defs>
<linearGradient id="paint0_linear_1_621" x1="60.7867" y1="-17.5858" x2="60.6204" y2="39.42" gradientUnits="userSpaceOnUse">
<stop stop-color="#48DBB4"/>
<stop offset="1" stop-color="#121B27" stop-opacity="0"/>
</linearGradient>
</defs>
</svg>
