<svg width="30" height="30" viewBox="0 0 30 30" fill="none" xmlns="http://www.w3.org/2000/svg">
<path d="M15 28C22.1797 28 28 22.1797 28 15C28 7.8203 22.1797 2 15 2C7.8203 2 2 7.8203 2 15C2 22.1797 7.8203 28 15 28Z" fill="white"/>
<path d="M14.7793 0C6.61818 0 0 6.71692 0 15C0 23.2831 6.61818 30 14.7793 30C22.9407 30 29.5588 23.2831 29.5588 15C29.5588 6.71692 22.9407 0 14.7793 0ZM14.7793 27C8.24976 27 2.9559 21.6269 2.9559 15C2.9559 8.37288 8.24976 3 14.7793 3C21.3089 3 26.6029 8.37288 26.6029 15C26.6029 21.6269 21.3089 27 14.7793 27Z" fill="#28BAEB"/>
</svg>
