<svg width="41" height="59" viewBox="0 0 41 59" fill="none" xmlns="http://www.w3.org/2000/svg">
<rect x="0.0372314" y="0.970215" width="40.6005" height="57.1414" rx="15.0372" fill="#213452"/>
<path d="M20.3119 31.1676C18.8388 31.1676 17.624 29.9788 17.6499 28.4797C17.6499 27.0066 18.8388 25.7918 20.3119 25.7918C21.7851 25.7918 22.9998 27.0066 22.9998 28.4797C22.9998 29.9788 21.811 31.1676 20.3119 31.1676ZM21.6042 31.9947C23.646 31.9947 25.3001 33.5454 25.3001 35.4579C25.3001 35.8456 24.9641 36.1299 24.5506 36.1299H16.0992C15.6857 36.1299 15.3755 35.8456 15.3755 35.4579C15.3755 33.5454 17.0038 31.9947 19.0455 31.9947H21.6042ZM25.3001 27.0324C24.137 27.0324 23.2325 26.1278 23.2325 24.9648C23.2325 23.8276 24.137 22.8972 25.3001 22.8972C26.4373 22.8972 27.3677 23.8276 27.3677 24.9648C27.3677 26.1278 26.4373 27.0324 25.3001 27.0324ZM16.797 28.4797C16.797 29.3585 17.133 30.1597 17.6757 30.7541H12.5067C12.2482 30.7541 12.0673 30.5474 12.0673 30.2889C12.0673 28.945 13.0753 27.8595 14.3417 27.8595H15.9183C16.2542 27.8595 16.5644 27.937 16.8487 28.0921C16.8228 28.2213 16.797 28.3505 16.797 28.4797ZM15.3755 27.0324C14.2125 27.0324 13.3079 26.1278 13.3079 24.9648C13.3079 23.8276 14.2125 22.8972 15.3755 22.8972C16.5127 22.8972 17.4431 23.8276 17.4431 24.9648C17.4431 26.1278 16.5127 27.0324 15.3755 27.0324ZM26.308 27.8595C27.5745 27.8595 28.6083 28.945 28.6083 30.2889C28.6083 30.5474 28.4015 30.7541 28.143 30.7541H22.974C23.5168 30.1597 23.8269 29.3585 23.8269 28.4797C23.8269 28.3505 23.8011 28.2213 23.8011 28.0921C24.0853 27.9628 24.3955 27.8595 24.7315 27.8595H26.308Z" fill="white"/>
</svg>
