<svg width="305" height="168" viewBox="0 0 305 168" fill="none" xmlns="http://www.w3.org/2000/svg">
<circle cx="20" cy="17" r="4" fill="#627697"/>
<circle cx="32" cy="17" r="4" fill="#627697"/>
<circle cx="44" cy="17" r="4" fill="#627697"/>
<g filter="url(#filter0_i_4019_2)">
<rect width="305" height="168" rx="20" fill="url(#paint0_linear_4019_2)"/>
</g>
<rect x="0.5" y="0.5" width="304" height="167" rx="19.5" stroke="url(#paint1_linear_4019_2)" stroke-opacity="0.15"/>
<g filter="url(#filter1_b_4019_2)">
<circle cx="153" cy="84" r="69" fill="white" fill-opacity="0.1"/>
<circle cx="153" cy="84" r="68.5" stroke="white" stroke-opacity="0.1"/>
</g>
<g filter="url(#filter2_b_4019_2)">
<circle cx="153" cy="84" r="46" fill="white" fill-opacity="0.7"/>
<circle cx="153" cy="84" r="45.5" stroke="white" stroke-opacity="0.2"/>
</g>
<path d="M153.441 53.6211C153.917 53.6211 154.512 53.7401 154.988 53.9781L177.36 63.4978C179.978 64.6878 182 67.1867 182 70.2807C181.881 82.1804 177.003 103.719 156.535 113.596C154.512 114.548 152.251 114.548 150.228 113.596C129.761 103.719 124.882 82.1804 124.882 70.2807C124.763 67.1867 126.786 64.6878 129.404 63.4978L151.775 53.9781C152.251 53.7401 152.846 53.6211 153.441 53.6211Z" fill="white"/>
<line x1="1" y1="32.5" x2="304" y2="32.5" stroke="white" stroke-opacity="0.15"/>
<path d="M149.616 76.7857V79.3928H156.134V76.7857C156.134 74.9933 154.667 73.5268 152.875 73.5268C151.042 73.5268 149.616 74.9933 149.616 76.7857ZM147.661 79.3928V76.7857C147.661 73.9341 149.983 71.5714 152.875 71.5714C155.727 71.5714 158.089 73.9341 158.089 76.7857V79.3928H159.393C160.819 79.3928 162 80.5742 162 82V89.8214C162 91.2879 160.819 92.4286 159.393 92.4286H146.357C144.891 92.4286 143.75 91.2879 143.75 89.8214V82C143.75 80.5742 144.891 79.3928 146.357 79.3928H147.661ZM145.705 82V89.8214C145.705 90.188 145.991 90.4732 146.357 90.4732H159.393C159.719 90.4732 160.045 90.188 160.045 89.8214V82C160.045 81.6741 159.719 81.3482 159.393 81.3482H146.357C145.991 81.3482 145.705 81.6741 145.705 82Z" fill="#213452"/>
<line x1="57.5" y1="33" x2="57.5" y2="167" stroke="url(#paint2_linear_4019_2)" stroke-opacity="0.15"/>
<defs>
<filter id="filter0_i_4019_2" x="0" y="0" width="305" height="174" filterUnits="userSpaceOnUse" color-interpolation-filters="sRGB">
<feFlood flood-opacity="0" result="BackgroundImageFix"/>
<feBlend mode="normal" in="SourceGraphic" in2="BackgroundImageFix" result="shape"/>
<feColorMatrix in="SourceAlpha" type="matrix" values="0 0 0 0 0 0 0 0 0 0 0 0 0 0 0 0 0 0 127 0" result="hardAlpha"/>
<feOffset dy="6"/>
<feGaussianBlur stdDeviation="5.35"/>
<feComposite in2="hardAlpha" operator="arithmetic" k2="-1" k3="1"/>
<feColorMatrix type="matrix" values="0 0 0 0 1 0 0 0 0 1 0 0 0 0 1 0 0 0 0.06 0"/>
<feBlend mode="normal" in2="shape" result="effect1_innerShadow_4019_2"/>
</filter>
<filter id="filter1_b_4019_2" x="79.5" y="10.5" width="147" height="147" filterUnits="userSpaceOnUse" color-interpolation-filters="sRGB">
<feFlood flood-opacity="0" result="BackgroundImageFix"/>
<feGaussianBlur in="BackgroundImageFix" stdDeviation="2.25"/>
<feComposite in2="SourceAlpha" operator="in" result="effect1_backgroundBlur_4019_2"/>
<feBlend mode="normal" in="SourceGraphic" in2="effect1_backgroundBlur_4019_2" result="shape"/>
</filter>
<filter id="filter2_b_4019_2" x="102.5" y="33.5" width="101" height="101" filterUnits="userSpaceOnUse" color-interpolation-filters="sRGB">
<feFlood flood-opacity="0" result="BackgroundImageFix"/>
<feGaussianBlur in="BackgroundImageFix" stdDeviation="2.25"/>
<feComposite in2="SourceAlpha" operator="in" result="effect1_backgroundBlur_4019_2"/>
<feBlend mode="normal" in="SourceGraphic" in2="effect1_backgroundBlur_4019_2" result="shape"/>
</filter>
<linearGradient id="paint0_linear_4019_2" x1="152.5" y1="0" x2="152.5" y2="168" gradientUnits="userSpaceOnUse">
<stop stop-color="#213452"/>
<stop offset="1" stop-color="#213452" stop-opacity="0"/>
</linearGradient>
<linearGradient id="paint1_linear_4019_2" x1="152.5" y1="0" x2="152.5" y2="168" gradientUnits="userSpaceOnUse">
<stop stop-color="white"/>
<stop offset="1" stop-color="white" stop-opacity="0"/>
</linearGradient>
<linearGradient id="paint2_linear_4019_2" x1="56.5" y1="33" x2="56.5" y2="167" gradientUnits="userSpaceOnUse">
<stop stop-color="white"/>
<stop offset="1" stop-color="white" stop-opacity="0"/>
</linearGradient>
</defs>
</svg>
