<svg width="16" height="16" viewBox="0 0 16 16" fill="none" xmlns="http://www.w3.org/2000/svg">
<circle cx="8" cy="8" r="8" fill="#28BAEB"/>
<path d="M9.68001 5.53027V6.98861L10.8649 7.41016C11.0814 7.48991 11.2295 7.69499 11.2295 7.93424V9.36979C11.2295 9.58626 11.0928 9.79134 10.8877 9.87109L9.7028 10.361C9.56608 10.418 9.41797 10.418 9.28125 10.361L7.94824 9.81413L6.60384 10.361C6.46712 10.418 6.31901 10.418 6.18229 10.361L4.9974 9.87109C4.79232 9.79134 4.66699 9.58626 4.66699 9.36979V7.93424C4.66699 7.69499 4.80371 7.48991 5.02018 7.41016L6.20508 6.98861H6.21647V5.53027C6.21647 5.30241 6.35319 5.09733 6.56966 5.01758L7.75456 4.59603C7.87988 4.55046 8.00521 4.55046 8.13053 4.59603L9.31543 5.01758C9.5319 5.09733 9.68001 5.30241 9.68001 5.53027ZM8.00521 4.93783C7.95964 4.92643 7.92546 4.92643 7.87988 4.93783L6.69499 5.35937C6.6722 5.37077 6.64941 5.39355 6.62663 5.40495L7.93685 5.90625L9.25846 5.40495C9.23568 5.39355 9.21289 5.37077 9.1901 5.35937L8.00521 4.93783ZM6.58105 6.98861L7.75456 7.41016V6.23665L6.56966 5.78092V6.98861H6.58105ZM8.13053 7.41016L9.30404 6.98861H9.31543V5.78092L8.13053 6.23665V7.41016ZM6.47852 8.53809V10.0192L7.75456 9.49512V8.08236L6.47852 8.53809ZM5.13411 9.54069L6.11393 9.93945V8.53809L5.02018 8.08236V9.36979C5.02018 9.43815 5.06576 9.50651 5.13411 9.54069ZM9.40658 8.53809L8.13053 8.08236V9.49512L9.40658 10.0192V8.53809ZM9.77116 9.93945L10.751 9.54069C10.8193 9.50651 10.8649 9.43815 10.8649 9.36979V8.08236L9.77116 8.53809V9.93945ZM6.45573 7.3304C6.41016 7.31901 6.37598 7.31901 6.3304 7.3304L5.16829 7.75195L6.30762 8.21908L7.60645 7.75195L6.45573 7.3304ZM8.27865 7.75195L9.57747 8.21908L10.7168 7.75195L9.55469 7.3304C9.50911 7.31901 9.47494 7.31901 9.42936 7.3304L8.27865 7.75195Z" fill="white"/>
</svg>
