<svg width="227" height="217" viewBox="0 0 227 217" fill="none" xmlns="http://www.w3.org/2000/svg">
<path d="M50 123V123C44.2358 123 38.4244 123.322 33.0337 125.364C22.0308 129.53 4 140.413 4 167C4 193.587 22.0308 204.47 33.0337 208.636C38.4244 210.678 44.2358 211 50 211V211" stroke="#5C718F" stroke-width="2" stroke-dasharray="6.43 6.43"/>
<path d="M180 123V123C185.764 123 191.576 123.322 196.966 125.364C207.969 129.53 226 140.413 226 167C226 193.587 207.969 204.47 196.966 208.636C191.576 210.678 185.764 211 180 211V211" stroke="#5C718F" stroke-width="2" stroke-dasharray="6.43 6.43"/>
<line x1="112" y1="160" x2="112" y2="189" stroke="#5C718F" stroke-width="2" stroke-dasharray="5 5"/>
<g filter="url(#filter0_i_1_150)">
<rect x="14" y="188" width="195" height="29" rx="14.5" fill="#213452"/>
<rect x="14.5" y="188.5" width="194" height="28" rx="14" stroke="white" stroke-opacity="0.17"/>
<path d="M49.1709 205.674V207H42.9092V197.136H49.1709V198.455H44.4404V201.34H48.918V202.611H44.4404V205.674H49.1709ZM50.2854 207V199.809H51.6936V201.032H51.7278C51.9671 200.191 52.6096 199.692 53.4573 199.692C53.6692 199.692 53.8538 199.727 53.9632 199.747V201.121C53.847 201.073 53.5872 201.039 53.3001 201.039C52.3499 201.039 51.762 201.675 51.762 202.693V207H50.2854ZM55.0298 207V200.978H54.0386V199.822H55.0298V199.118C55.0298 197.724 55.6861 197.067 57.149 197.067C57.4498 197.067 57.7847 197.102 57.9761 197.136V198.229C57.8326 198.202 57.6343 198.188 57.4361 198.188C56.7935 198.188 56.4927 198.51 56.4927 199.146V199.822H57.9488V200.978H56.5132V207H55.0298ZM61.62 207.137C59.5623 207.137 58.2088 205.722 58.2088 203.404C58.2088 201.094 59.5692 199.679 61.62 199.679C63.6707 199.679 65.0311 201.094 65.0311 203.404C65.0311 205.722 63.6776 207.137 61.62 207.137ZM61.62 205.92C62.7821 205.92 63.5272 205.004 63.5272 203.404C63.5272 201.812 62.7752 200.896 61.62 200.896C60.4647 200.896 59.7127 201.812 59.7127 203.404C59.7127 205.004 60.4647 205.92 61.62 205.92ZM65.9474 207V197.136H67.4239V207H65.9474ZM71.724 205.804C72.8793 205.804 73.6381 204.867 73.6381 203.384C73.6381 201.907 72.8793 200.937 71.724 200.937C70.5893 200.937 69.851 201.887 69.851 203.384C69.851 204.888 70.5893 205.804 71.724 205.804ZM71.7377 209.707C70.0424 209.707 68.7846 208.805 68.6 207.561H70.0834C70.2953 208.162 70.9516 208.559 71.7924 208.559C72.9477 208.559 73.6313 207.902 73.6313 206.918V205.735H73.6039C73.2006 206.515 72.3529 207.027 71.3275 207.027C69.5229 207.027 68.3402 205.619 68.3402 203.377C68.3402 201.114 69.516 199.692 71.3617 199.692C72.3803 199.692 73.2143 200.205 73.6518 201.039H73.6791V199.809H75.1146V206.87C75.1146 208.586 73.7885 209.707 71.7377 209.707ZM76.2975 207V199.809H77.7057V201.032H77.7399C77.9792 200.191 78.6218 199.692 79.4694 199.692C79.6813 199.692 79.8659 199.727 79.9753 199.747V201.121C79.8591 201.073 79.5993 201.039 79.3122 201.039C78.362 201.039 77.7741 201.675 77.7741 202.693V207H76.2975ZM83.3046 200.868C82.2724 200.868 81.5478 201.654 81.4726 202.741H85.0683C85.0341 201.641 84.3369 200.868 83.3046 200.868ZM85.0615 204.888H86.4629C86.2578 206.2 85.0136 207.137 83.3662 207.137C81.2539 207.137 79.9755 205.708 79.9755 203.438C79.9755 201.183 81.2744 199.679 83.3046 199.679C85.3007 199.679 86.5449 201.087 86.5449 203.268V203.773H81.4658V203.862C81.4658 205.113 82.2177 205.94 83.4004 205.94C84.2412 205.94 84.8632 205.517 85.0615 204.888ZM87.4612 207V199.809H88.9377V207H87.4612ZM88.1995 198.756C87.7278 198.756 87.345 198.38 87.345 197.915C87.345 197.443 87.7278 197.067 88.1995 197.067C88.678 197.067 89.0608 197.443 89.0608 197.915C89.0608 198.38 88.678 198.756 88.1995 198.756ZM96.3413 202.283H94.9331C94.7827 201.518 94.2085 200.909 93.2446 200.909C92.103 200.909 91.3511 201.859 91.3511 203.404C91.3511 204.983 92.1099 205.899 93.2583 205.899C94.1675 205.899 94.7622 205.4 94.9331 204.566H96.355C96.1978 206.098 94.9741 207.137 93.2446 207.137C91.187 207.137 89.8472 205.729 89.8472 203.404C89.8472 201.121 91.187 199.679 93.231 199.679C95.0835 199.679 96.2114 200.868 96.3413 202.283ZM97.1756 207V197.136H98.6385V201.012H98.6727C99.0691 200.171 99.8553 199.686 100.949 199.686C102.528 199.686 103.471 200.738 103.471 202.365V207H101.988V202.652C101.988 201.593 101.455 200.957 100.416 200.957C99.3221 200.957 98.6521 201.709 98.6521 202.844V207H97.1756ZM107.628 200.868C106.596 200.868 105.871 201.654 105.796 202.741H109.392C109.357 201.641 108.66 200.868 107.628 200.868ZM109.385 204.888H110.786C110.581 206.2 109.337 207.137 107.69 207.137C105.577 207.137 104.299 205.708 104.299 203.438C104.299 201.183 105.598 199.679 107.628 199.679C109.624 199.679 110.868 201.087 110.868 203.268V203.773H105.789V203.862C105.789 205.113 106.541 205.94 107.724 205.94C108.565 205.94 109.187 205.517 109.385 204.888ZM118.457 207H116.925V198.455H113.904V197.136H121.471V198.455H118.457V207ZM120.925 207V199.809H122.333V201.032H122.367C122.606 200.191 123.249 199.692 124.097 199.692C124.309 199.692 124.493 199.727 124.602 199.747V201.121C124.486 201.073 124.226 201.039 123.939 201.039C122.989 201.039 122.401 201.675 122.401 202.693V207H120.925ZM127.604 205.954C128.636 205.954 129.443 205.243 129.443 204.307V203.739L127.672 203.849C126.79 203.91 126.291 204.3 126.291 204.915C126.291 205.544 126.811 205.954 127.604 205.954ZM127.194 207.123C125.785 207.123 124.801 206.248 124.801 204.956C124.801 203.698 125.765 202.926 127.474 202.83L129.443 202.714V202.16C129.443 201.36 128.903 200.882 128 200.882C127.146 200.882 126.613 201.292 126.483 201.935H125.088C125.17 200.636 126.278 199.679 128.055 199.679C129.798 199.679 130.912 200.602 130.912 202.044V207H129.497V205.817H129.463C129.046 206.617 128.137 207.123 127.194 207.123ZM132.068 207V199.809H133.476V201.012H133.51C133.9 200.191 134.666 199.686 135.773 199.686C137.359 199.686 138.268 200.697 138.268 202.345V207H136.785V202.632C136.785 201.552 136.279 200.957 135.253 200.957C134.214 200.957 133.544 201.695 133.544 202.81V207H132.068ZM139.287 201.846C139.287 200.561 140.422 199.679 142.103 199.679C143.703 199.679 144.824 200.574 144.872 201.853H143.484C143.416 201.203 142.889 200.8 142.062 200.8C141.262 200.8 140.729 201.189 140.729 201.757C140.729 202.201 141.085 202.502 141.83 202.687L143.04 202.967C144.489 203.315 145.036 203.862 145.036 204.922C145.036 206.234 143.812 207.137 142.049 207.137C140.346 207.137 139.219 206.255 139.102 204.936H140.565C140.681 205.626 141.215 206.009 142.117 206.009C143.006 206.009 143.552 205.64 143.552 205.059C143.552 204.601 143.279 204.348 142.527 204.156L141.242 203.842C139.943 203.527 139.287 202.851 139.287 201.846ZM148.42 205.954C149.452 205.954 150.259 205.243 150.259 204.307V203.739L148.488 203.849C147.606 203.91 147.107 204.3 147.107 204.915C147.107 205.544 147.627 205.954 148.42 205.954ZM148.01 207.123C146.602 207.123 145.617 206.248 145.617 204.956C145.617 203.698 146.581 202.926 148.29 202.83L150.259 202.714V202.16C150.259 201.36 149.719 200.882 148.816 200.882C147.962 200.882 147.429 201.292 147.299 201.935H145.904C145.986 200.636 147.094 199.679 148.871 199.679C150.614 199.679 151.729 200.602 151.729 202.044V207H150.314V205.817H150.279C149.862 206.617 148.953 207.123 148.01 207.123ZM154.429 202.892L157.334 199.809H159.071L156.09 202.905L159.187 207H157.471L155.031 203.808L154.415 204.416V207H152.939V197.136H154.415V202.892H154.429ZM160.103 198.106H161.587V199.809H162.954V200.978H161.587V204.942C161.587 205.564 161.86 205.845 162.462 205.845C162.612 205.845 162.851 205.831 162.947 205.811V206.979C162.783 207.021 162.455 207.048 162.127 207.048C160.671 207.048 160.103 206.494 160.103 205.106V200.978H159.057V199.809H160.103V198.106ZM163.938 207V199.809H165.415V207H163.938ZM164.677 198.756C164.205 198.756 163.822 198.38 163.822 197.915C163.822 197.443 164.205 197.067 164.677 197.067C165.155 197.067 165.538 197.443 165.538 197.915C165.538 198.38 165.155 198.756 164.677 198.756ZM169.736 207.137C167.678 207.137 166.324 205.722 166.324 203.404C166.324 201.094 167.685 199.679 169.736 199.679C171.786 199.679 173.147 201.094 173.147 203.404C173.147 205.722 171.793 207.137 169.736 207.137ZM169.736 205.92C170.898 205.92 171.643 205.004 171.643 203.404C171.643 201.812 170.891 200.896 169.736 200.896C168.58 200.896 167.828 201.812 167.828 203.404C167.828 205.004 168.58 205.92 169.736 205.92ZM174.008 207V199.809H175.416V201.012H175.451C175.84 200.191 176.606 199.686 177.713 199.686C179.299 199.686 180.208 200.697 180.208 202.345V207H178.725V202.632C178.725 201.552 178.219 200.957 177.194 200.957C176.155 200.957 175.485 201.695 175.485 202.81V207H174.008Z" fill="white"/>
</g>
<g clip-path="url(#clip0_1_150)">
<g filter="url(#filter1_i_1_150)">
<circle cx="43" cy="85" r="42" fill="#213452"/>
</g>
<circle cx="43" cy="85" r="41.6316" stroke="white" stroke-opacity="0.15" stroke-width="0.736842"/>
<path d="M61.8195 97.8359C53.8375 95.2287 50.5195 91.9865 50.5195 91.9865L50.2523 92.2412C47.8819 94.4723 45.2602 95.7839 42.8719 95.7839H42.6465C40.2584 95.7839 37.6367 94.4723 35.2663 92.2412L34.999 91.9865C34.999 91.9865 31.6812 95.2285 23.6991 97.8359C11.916 102.238 15.454 120.151 15.4506 120.29C15.8217 122.285 16.038 122.97 16.2265 123.047C28.0593 128.315 57.4595 128.315 69.2924 123.047C69.4809 122.97 69.6972 122.285 70.0683 120.29C70.0649 120.151 73.6502 102.309 61.8195 97.8359Z" fill="white" fill-opacity="0.8"/>
<path d="M55.1337 74.9841L55.0349 74.8769C54.3719 74.2699 54.4237 74.3047 54.4237 74.3047C54.4237 74.3047 55.5801 68.4698 54.6528 65.7105C53.197 61.3039 44.5015 58.3504 42.7574 58.0071C42.7577 58.0039 41.6966 57.7915 41.6288 57.7911C41.6288 57.7911 40.257 57.5137 38.667 58.2073C37.6315 58.6056 32.2179 61.0606 30.6813 65.7105C29.7541 68.4698 30.9105 74.3047 30.9105 74.3047C30.9105 74.3047 30.9623 74.2699 30.2992 74.8769L30.2005 74.9841C29.752 75.4934 29.8628 77.087 30.3531 78.7449C30.7973 80.4059 31.3764 80.8522 31.5151 81.2413C32.9216 87.8451 37.8123 93.4835 42.7961 93.4835C47.78 93.4835 52.4123 87.8451 53.8188 81.2413C53.9577 80.8524 54.5368 80.4059 54.981 78.7449C55.4713 77.0868 55.595 75.3839 55.1337 74.9841Z" fill="white" fill-opacity="0.8"/>
</g>
<g clip-path="url(#clip1_1_150)">
<g filter="url(#filter2_i_1_150)">
<circle cx="179" cy="85" r="42" fill="#213452"/>
</g>
<circle cx="179" cy="85" r="41.6316" stroke="white" stroke-opacity="0.15" stroke-width="0.736842"/>
<path d="M197.82 97.8359C189.838 95.2287 186.519 91.9865 186.519 91.9865L186.252 92.2412C183.882 94.4723 181.26 95.7839 178.872 95.7839H178.647C176.258 95.7839 173.637 94.4723 171.266 92.2412L170.999 91.9865C170.999 91.9865 167.681 95.2285 159.699 97.8359C147.916 102.238 151.454 120.151 151.451 120.29C151.822 122.285 152.038 122.97 152.226 123.047C164.059 128.315 193.459 128.315 205.292 123.047C205.481 122.97 205.697 122.285 206.068 120.29C206.065 120.151 209.65 102.309 197.82 97.8359Z" fill="white" fill-opacity="0.8"/>
<path d="M191.134 74.9841L191.035 74.8769C190.372 74.2699 190.424 74.3047 190.424 74.3047C190.424 74.3047 191.58 68.4698 190.653 65.7105C189.197 61.3039 180.501 58.3504 178.757 58.0071C178.758 58.0039 177.697 57.7915 177.629 57.7911C177.629 57.7911 176.257 57.5137 174.667 58.2073C173.631 58.6056 168.218 61.0606 166.681 65.7105C165.754 68.4698 166.911 74.3047 166.911 74.3047C166.911 74.3047 166.962 74.2699 166.299 74.8769L166.201 74.9841C165.752 75.4934 165.863 77.087 166.353 78.7449C166.797 80.4059 167.376 80.8522 167.515 81.2413C168.922 87.8451 173.812 93.4835 178.796 93.4835C183.78 93.4835 188.412 87.8451 189.819 81.2413C189.958 80.8524 190.537 80.4059 190.981 78.7449C191.471 77.0868 191.595 75.3839 191.134 74.9841Z" fill="white" fill-opacity="0.8"/>
</g>
<g filter="url(#filter3_d_1_150)">
<g clip-path="url(#clip2_1_150)">
<g filter="url(#filter4_i_1_150)">
<circle cx="111" cy="85" r="57" fill="#213452"/>
</g>
<circle cx="111" cy="85" r="56.5" stroke="white" stroke-opacity="0.15"/>
<path d="M136.541 102.421C125.708 98.8825 121.205 94.4824 121.205 94.4824L120.843 94.828C117.626 97.8559 114.068 99.636 110.827 99.636H110.521C107.28 99.636 103.722 97.8559 100.505 94.828L100.142 94.4824C100.142 94.4824 95.6392 98.8823 84.8063 102.421C68.8149 108.395 73.6165 132.706 73.6119 132.894C74.1156 135.601 74.4091 136.532 74.6649 136.637C90.7237 143.786 130.624 143.786 146.683 136.637C146.939 136.532 147.232 135.601 147.736 132.894C147.731 132.706 152.597 108.491 136.541 102.421Z" fill="white" fill-opacity="0.8"/>
<path d="M127.468 71.4077L127.333 71.2622C126.434 70.4384 126.504 70.4856 126.504 70.4856C126.504 70.4856 128.073 62.5669 126.815 58.8221C124.839 52.8416 113.038 48.8334 110.671 48.3675C110.672 48.3631 109.231 48.0749 109.14 48.0744C109.14 48.0744 107.278 47.6979 105.12 48.6391C103.715 49.1798 96.3675 52.5115 94.2821 58.8221C93.0239 62.5669 94.5932 70.4856 94.5932 70.4856C94.5932 70.4856 94.6636 70.4384 93.7636 71.2622L93.6297 71.4077C93.021 72.0989 93.1713 74.2616 93.8367 76.5116C94.4396 78.7658 95.2255 79.3716 95.4138 79.8995C97.3226 88.8619 103.96 96.514 110.724 96.514C117.488 96.514 123.774 88.8619 125.683 79.8995C125.872 79.3718 126.657 78.7658 127.26 76.5116C127.926 74.2614 128.094 71.9503 127.468 71.4077Z" fill="white" fill-opacity="0.8"/>
</g>
</g>
<g filter="url(#filter5_i_1_150)">
<rect x="64" y="132" width="95" height="29" rx="14.5" fill="#213452"/>
<rect x="64.5" y="132.5" width="94" height="28" rx="14" stroke="white" stroke-opacity="0.17"/>
<path d="M94.4404 151H92.9092V141.136H94.4404V145.832H94.502L98.624 141.136H100.442L96.5322 145.504L100.771 151H98.8701L95.4521 146.557L94.4404 147.712V151ZM107.422 143.809V151H106.007V149.783H105.973C105.576 150.645 104.845 151.13 103.744 151.13C102.179 151.13 101.222 150.111 101.222 148.464V143.809H102.699V148.177C102.699 149.271 103.218 149.858 104.237 149.858C105.303 149.858 105.946 149.12 105.946 147.999V143.809H107.422ZM108.605 151V143.809H110.013V145.012H110.047C110.437 144.191 111.203 143.686 112.31 143.686C113.896 143.686 114.805 144.697 114.805 146.345V151H113.322V146.632C113.322 145.552 112.816 144.957 111.791 144.957C110.752 144.957 110.082 145.695 110.082 146.81V151H108.605ZM118.654 151.123C116.836 151.123 115.633 149.674 115.633 147.404C115.633 145.135 116.836 143.692 118.64 143.692C119.673 143.692 120.493 144.212 120.896 145.005H120.924V141.136H122.407V151H120.972V149.776H120.944C120.52 150.597 119.7 151.123 118.654 151.123ZM119.044 144.937C117.875 144.937 117.143 145.894 117.143 147.404C117.143 148.922 117.875 149.872 119.044 149.872C120.179 149.872 120.937 148.908 120.937 147.404C120.937 145.914 120.179 144.937 119.044 144.937ZM126.652 144.868C125.62 144.868 124.896 145.654 124.82 146.741H128.416C128.382 145.641 127.685 144.868 126.652 144.868ZM128.409 148.888H129.811C129.606 150.2 128.361 151.137 126.714 151.137C124.602 151.137 123.323 149.708 123.323 147.438C123.323 145.183 124.622 143.679 126.652 143.679C128.649 143.679 129.893 145.087 129.893 147.268V147.773H124.814V147.862C124.814 149.113 125.566 149.94 126.748 149.94C127.589 149.94 128.211 149.517 128.409 148.888Z" fill="white"/>
</g>
<path d="M112.707 166.293C112.317 165.902 111.683 165.902 111.293 166.293L104.929 172.657C104.538 173.047 104.538 173.681 104.929 174.071C105.319 174.462 105.953 174.462 106.343 174.071L112 168.414L117.657 174.071C118.047 174.462 118.681 174.462 119.071 174.071C119.462 173.681 119.462 173.047 119.071 172.657L112.707 166.293ZM113 181L113 167L111 167L111 181L113 181Z" fill="url(#paint0_linear_1_150)"/>
<defs>
<filter id="filter0_i_1_150" x="14" y="188" width="195" height="35" filterUnits="userSpaceOnUse" color-interpolation-filters="sRGB">
<feFlood flood-opacity="0" result="BackgroundImageFix"/>
<feBlend mode="normal" in="SourceGraphic" in2="BackgroundImageFix" result="shape"/>
<feColorMatrix in="SourceAlpha" type="matrix" values="0 0 0 0 0 0 0 0 0 0 0 0 0 0 0 0 0 0 127 0" result="hardAlpha"/>
<feOffset dy="6"/>
<feGaussianBlur stdDeviation="5.35"/>
<feComposite in2="hardAlpha" operator="arithmetic" k2="-1" k3="1"/>
<feColorMatrix type="matrix" values="0 0 0 0 1 0 0 0 0 1 0 0 0 0 1 0 0 0 0.06 0"/>
<feBlend mode="normal" in2="shape" result="effect1_innerShadow_1_150"/>
</filter>
<filter id="filter1_i_1_150" x="1" y="43" width="84" height="88.4211" filterUnits="userSpaceOnUse" color-interpolation-filters="sRGB">
<feFlood flood-opacity="0" result="BackgroundImageFix"/>
<feBlend mode="normal" in="SourceGraphic" in2="BackgroundImageFix" result="shape"/>
<feColorMatrix in="SourceAlpha" type="matrix" values="0 0 0 0 0 0 0 0 0 0 0 0 0 0 0 0 0 0 127 0" result="hardAlpha"/>
<feOffset dy="4.42105"/>
<feGaussianBlur stdDeviation="3.94211"/>
<feComposite in2="hardAlpha" operator="arithmetic" k2="-1" k3="1"/>
<feColorMatrix type="matrix" values="0 0 0 0 1 0 0 0 0 1 0 0 0 0 1 0 0 0 0.06 0"/>
<feBlend mode="normal" in2="shape" result="effect1_innerShadow_1_150"/>
</filter>
<filter id="filter2_i_1_150" x="137" y="43" width="84" height="88.4211" filterUnits="userSpaceOnUse" color-interpolation-filters="sRGB">
<feFlood flood-opacity="0" result="BackgroundImageFix"/>
<feBlend mode="normal" in="SourceGraphic" in2="BackgroundImageFix" result="shape"/>
<feColorMatrix in="SourceAlpha" type="matrix" values="0 0 0 0 0 0 0 0 0 0 0 0 0 0 0 0 0 0 127 0" result="hardAlpha"/>
<feOffset dy="4.42105"/>
<feGaussianBlur stdDeviation="3.94211"/>
<feComposite in2="hardAlpha" operator="arithmetic" k2="-1" k3="1"/>
<feColorMatrix type="matrix" values="0 0 0 0 1 0 0 0 0 1 0 0 0 0 1 0 0 0 0.06 0"/>
<feBlend mode="normal" in2="shape" result="effect1_innerShadow_1_150"/>
</filter>
<filter id="filter3_d_1_150" x="0" y="-22" width="222" height="222" filterUnits="userSpaceOnUse" color-interpolation-filters="sRGB">
<feFlood flood-opacity="0" result="BackgroundImageFix"/>
<feColorMatrix in="SourceAlpha" type="matrix" values="0 0 0 0 0 0 0 0 0 0 0 0 0 0 0 0 0 0 127 0" result="hardAlpha"/>
<feOffset dy="4"/>
<feGaussianBlur stdDeviation="27"/>
<feComposite in2="hardAlpha" operator="out"/>
<feColorMatrix type="matrix" values="0 0 0 0 0 0 0 0 0 0 0 0 0 0 0 0 0 0 0.35 0"/>
<feBlend mode="normal" in2="BackgroundImageFix" result="effect1_dropShadow_1_150"/>
<feBlend mode="normal" in="SourceGraphic" in2="effect1_dropShadow_1_150" result="shape"/>
</filter>
<filter id="filter4_i_1_150" x="54" y="28" width="114" height="120" filterUnits="userSpaceOnUse" color-interpolation-filters="sRGB">
<feFlood flood-opacity="0" result="BackgroundImageFix"/>
<feBlend mode="normal" in="SourceGraphic" in2="BackgroundImageFix" result="shape"/>
<feColorMatrix in="SourceAlpha" type="matrix" values="0 0 0 0 0 0 0 0 0 0 0 0 0 0 0 0 0 0 127 0" result="hardAlpha"/>
<feOffset dy="6"/>
<feGaussianBlur stdDeviation="5.35"/>
<feComposite in2="hardAlpha" operator="arithmetic" k2="-1" k3="1"/>
<feColorMatrix type="matrix" values="0 0 0 0 1 0 0 0 0 1 0 0 0 0 1 0 0 0 0.06 0"/>
<feBlend mode="normal" in2="shape" result="effect1_innerShadow_1_150"/>
</filter>
<filter id="filter5_i_1_150" x="64" y="132" width="95" height="35" filterUnits="userSpaceOnUse" color-interpolation-filters="sRGB">
<feFlood flood-opacity="0" result="BackgroundImageFix"/>
<feBlend mode="normal" in="SourceGraphic" in2="BackgroundImageFix" result="shape"/>
<feColorMatrix in="SourceAlpha" type="matrix" values="0 0 0 0 0 0 0 0 0 0 0 0 0 0 0 0 0 0 127 0" result="hardAlpha"/>
<feOffset dy="6"/>
<feGaussianBlur stdDeviation="5.35"/>
<feComposite in2="hardAlpha" operator="arithmetic" k2="-1" k3="1"/>
<feColorMatrix type="matrix" values="0 0 0 0 1 0 0 0 0 1 0 0 0 0 1 0 0 0 0.06 0"/>
<feBlend mode="normal" in2="shape" result="effect1_innerShadow_1_150"/>
</filter>
<linearGradient id="paint0_linear_1_150" x1="112.5" y1="167" x2="112.5" y2="181" gradientUnits="userSpaceOnUse">
<stop stop-color="#6A83A7"/>
<stop offset="1" stop-color="#6A83A7" stop-opacity="0"/>
</linearGradient>
<clipPath id="clip0_1_150">
<rect x="1" y="43" width="84" height="84" rx="42" fill="white"/>
</clipPath>
<clipPath id="clip1_1_150">
<rect x="137" y="43" width="84" height="84" rx="42" fill="white"/>
</clipPath>
<clipPath id="clip2_1_150">
<rect x="54" y="28" width="114" height="114" rx="57" fill="white"/>
</clipPath>
</defs>
</svg>
