<svg width="25" height="35" viewBox="0 0 25 35" fill="none" xmlns="http://www.w3.org/2000/svg">
<rect width="25" height="35" rx="5.45443" fill="#48DBB4"/>
<path d="M11.9843 18C11.0937 18 10.3593 17.2813 10.3749 16.3751C10.3749 15.4845 11.0937 14.7501 11.9843 14.7501C12.8749 14.7501 13.6092 15.4845 13.6092 16.3751C13.6092 17.2813 12.8905 18 11.9843 18ZM12.7655 18.5C13.9998 18.5 14.9998 19.4375 14.9998 20.5937C14.9998 20.8281 14.7967 21 14.5467 21H9.43745C9.18745 21 8.99996 20.8281 8.99996 20.5937C8.99996 19.4375 9.98431 18.5 11.2187 18.5H12.7655ZM14.9998 15.5001C14.2967 15.5001 13.7499 14.9532 13.7499 14.2501C13.7499 13.5626 14.2967 13.0002 14.9998 13.0002C15.6873 13.0002 16.2498 13.5626 16.2498 14.2501C16.2498 14.9532 15.6873 15.5001 14.9998 15.5001ZM9.85931 16.3751C9.85931 16.9063 10.0624 17.3907 10.3906 17.75H7.26562C7.10937 17.75 7 17.6251 7 17.4688C7 16.6563 7.60936 16.0001 8.37497 16.0001H9.32807C9.5312 16.0001 9.71869 16.047 9.89056 16.1407C9.87494 16.2188 9.85931 16.297 9.85931 16.3751ZM8.99996 15.5001C8.29685 15.5001 7.74998 14.9532 7.74998 14.2501C7.74998 13.5626 8.29685 13.0002 8.99996 13.0002C9.68744 13.0002 10.2499 13.5626 10.2499 14.2501C10.2499 14.9532 9.68744 15.5001 8.99996 15.5001ZM15.6092 16.0001C16.3748 16.0001 16.9998 16.6563 16.9998 17.4688C16.9998 17.6251 16.8748 17.75 16.7185 17.75H13.5936C13.9217 17.3907 14.1092 16.9063 14.1092 16.3751C14.1092 16.297 14.0936 16.2188 14.0936 16.1407C14.2655 16.0626 14.453 16.0001 14.6561 16.0001H15.6092Z" fill="white"/>
</svg>
