<svg width="19" height="19" viewBox="0 0 19 19" fill="none" xmlns="http://www.w3.org/2000/svg">
<circle cx="9.39935" cy="9.39935" r="5.48333" fill="white"/>
<path d="M9.41836 18.8C6.04023 18.8 2.95586 17.0375 1.2668 14.1C-0.422266 11.1992 -0.422266 7.6375 1.2668 4.7C2.95586 1.79922 6.04023 0 9.41836 0C12.7598 0 15.8441 1.79922 17.5332 4.7C19.2223 7.6375 19.2223 11.1992 17.5332 14.1C15.8441 17.0375 12.7598 18.8 9.41836 18.8ZM13.5676 7.67422H13.5309C13.898 7.34375 13.898 6.79297 13.5309 6.42578C13.2004 6.09531 12.6496 6.09531 12.3191 6.42578L8.24336 10.5383L6.51758 8.8125C6.15039 8.44531 5.59961 8.44531 5.26914 8.8125C4.90195 9.14297 4.90195 9.69375 5.26914 10.0242L7.61914 12.3742C7.94961 12.7414 8.50039 12.7414 8.86758 12.3742L13.5676 7.67422Z" fill="#48DBB4"/>
</svg>
