<svg width="15" height="15" viewBox="0 0 15 15" fill="none" xmlns="http://www.w3.org/2000/svg">
<path d="M13.1254 7.84719V9.00594C13.1254 9.32094 12.8666 9.57969 12.546 9.57969H11.4604C10.8529 9.57969 10.296 9.13531 10.2454 8.52781C10.2116 8.17344 10.3466 7.84156 10.5829 7.61094C10.791 7.39719 11.0779 7.27344 11.3929 7.27344H12.546C12.8666 7.27344 13.1254 7.53219 13.1254 7.84719Z" fill="white"/>
<path d="M9.40125 8.60406C9.35063 8.01344 9.56438 7.43406 9.99187 7.01219C10.3519 6.64656 10.8525 6.43281 11.3925 6.43281H11.7131C11.8706 6.43281 12 6.30344 11.9775 6.14594C11.8256 5.05469 10.8806 4.21094 9.75 4.21094H4.125C2.88188 4.21094 1.875 5.21781 1.875 6.46094L1.875 10.3984C1.875 11.6416 2.88188 12.6484 4.125 12.6484H9.75C10.8862 12.6484 11.8256 11.8047 11.9775 10.7134C12 10.5559 11.8706 10.4266 11.7131 10.4266H11.46C10.3913 10.4266 9.49125 9.62781 9.40125 8.60406ZM8.0625 7.44531H4.6875C4.45688 7.44531 4.26562 7.25969 4.26562 7.02344C4.26562 6.78719 4.45688 6.60156 4.6875 6.60156H8.0625C8.29313 6.60156 8.48438 6.79281 8.48438 7.02344C8.48438 7.25406 8.29313 7.44531 8.0625 7.44531Z" fill="white"/>
<path d="M8.74324 2.98719C8.88949 3.13906 8.76012 3.36406 8.54637 3.36406H4.14199C3.52887 3.36406 2.95512 3.54406 2.47699 3.85344C2.25762 3.99406 1.95949 3.84219 2.06637 3.60031C2.38137 2.86344 3.11824 2.35156 3.96762 2.35156H7.12887C7.78137 2.35156 8.36074 2.58219 8.74324 2.98719Z" fill="white"/>
</svg>
