<svg width="65" height="85" viewBox="0 0 65 85" fill="none" xmlns="http://www.w3.org/2000/svg">
<path d="M19.2019 5.042L18.5712 5.31367C9.56329 9.19412 5.05931 11.1343 2.52965 14.9785C0 18.8226 0 23.7267 0 33.5349V45.4942C0 51.9927 0 55.2419 1.255 58.1534C2.51 61.0648 4.85481 63.2793 9.54445 67.7083C16.3173 74.1046 23.533 80.8493 25.5591 82.5139C28.0705 84.5772 34.1448 85.386 38.8307 83.9235C39.1 83.8394 39.2346 83.7974 40.9146 82.7463C42.5946 81.6952 43.0964 81.1621 44.0999 80.0959L55.9318 67.526C60.0576 63.1429 62.1204 60.9513 63.2027 58.2225C64.285 55.4937 64.285 52.484 64.285 46.4646V34.1398C64.285 24.0538 64.285 19.0108 61.6392 15.107C58.9934 11.2031 54.3092 9.33477 44.941 5.59807L42.7435 4.72153C36.9031 2.39197 33.9829 1.2272 30.9235 1.26884C27.8641 1.31049 24.9767 2.55433 19.2019 5.042Z" fill="#253D62"/>
<path d="M18.7455 5.7181L19.3761 5.44643C25.184 2.94452 27.9782 1.74933 30.9295 1.70916C33.8808 1.66898 36.7065 2.78766 42.5803 5.13055L44.7779 6.00708C49.471 7.87903 52.9576 9.27041 55.6042 10.6786C58.2411 12.0817 60.0064 13.4827 61.2746 15.354C62.5429 17.2253 63.1902 19.3841 63.5165 22.3532C63.844 25.3331 63.8446 29.0871 63.8446 34.1398V46.4646C63.8446 52.5183 63.8374 55.4278 62.7934 58.0602C61.7493 60.6926 59.7604 62.8161 55.6111 67.2242L43.7793 79.7941L43.7705 79.8035C42.7877 80.8476 42.3129 81.352 40.681 82.373C39.0456 83.3962 38.9112 83.4377 38.7203 83.4967C38.7134 83.4988 38.7065 83.5009 38.6995 83.5031C36.4247 84.2132 33.7976 84.3749 31.4296 84.1034C29.0487 83.8304 27 83.1278 25.8386 82.1736C23.8277 80.5215 16.6273 73.7917 9.8468 67.3881C5.13042 62.9339 2.8701 60.7878 1.65938 57.9791C0.448707 55.1704 0.440354 52.0299 0.440354 45.4942V33.5349C0.440354 28.6213 0.440945 24.9709 0.754023 22.0674C1.06596 19.1744 1.68486 17.0633 2.89751 15.2205C4.11015 13.3778 5.80417 11.9741 8.33766 10.5431C10.8804 9.10684 14.2328 7.66207 18.7455 5.7181Z" stroke="url(#paint0_linear_1_232)" stroke-opacity="0.4" stroke-width="0.880708"/>
<path d="M32.7586 54.3996C28.0036 54.3996 23.6621 51.9188 21.2846 47.784C18.9071 43.7009 18.9071 38.6875 21.2846 34.5527C23.6621 30.4696 28.0036 27.9371 32.7586 27.9371C37.4619 27.9371 41.8034 30.4696 44.1809 34.5527C46.5584 38.6875 46.5584 43.7009 44.1809 47.784C41.8034 51.9188 37.4619 54.3996 32.7586 54.3996ZM38.599 38.7392H38.5473C39.0641 38.274 39.0641 37.4987 38.5473 36.9819C38.0821 36.5167 37.3069 36.5167 36.8417 36.9819L31.1047 42.7706L28.6755 40.3414C28.1587 39.8245 27.3834 39.8245 26.9182 40.3414C26.4014 40.8066 26.4014 41.5818 26.9182 42.047L30.2261 45.3548C30.6912 45.8716 31.4665 45.8716 31.9833 45.3548L38.599 38.7392Z" fill="white"/>
<defs>
<linearGradient id="paint0_linear_1_232" x1="5.1216" y1="-5.25716" x2="57.5988" y2="65.8925" gradientUnits="userSpaceOnUse">
<stop stop-color="#C3C3C3"/>
<stop offset="1" stop-color="white" stop-opacity="0"/>
</linearGradient>
</defs>
</svg>
