<svg width="81" height="95" viewBox="0 0 81 95" fill="none" xmlns="http://www.w3.org/2000/svg">
<path d="M80.5946 31.0906L80.6453 35.7125L76.6156 33.4449L80.5946 31.0906ZM33.5188 88.3045L20.565 6.43957L21.3549 6.31441L34.3088 88.1793L33.5188 88.3045ZM46.7342 90.4139L78.4783 34.0336L79.1749 34.4262L47.4307 90.8067L46.7342 90.4139ZM13.9653 0.800609H0V0H13.9653V0.800609ZM20.565 6.43957C20.0526 3.19203 17.2531 0.800609 13.9653 0.800609V0C17.6454 0 20.7811 2.67804 21.3549 6.31441L20.565 6.43957ZM34.3088 88.1793C35.2989 94.4361 43.6252 95.9335 46.7342 90.4139L47.4307 90.8067C43.9508 96.9877 34.6263 95.3106 33.5188 88.3045L34.3088 88.1793Z" fill="#E7E7E7" fill-opacity="0.1"/>
</svg>
