<svg width="131" height="220" viewBox="0 0 131 220" fill="none" xmlns="http://www.w3.org/2000/svg">
<path d="M94.5426 97.2886L60.8433 3.88282L61.4039 3.68058L95.1032 97.0862L94.5426 97.2886ZM51.3421 4.34611L-3.4224 219.901L-4 219.754L50.7645 4.19937L51.3421 4.34611ZM111.769 67.2814L105.22 96.612L104.638 96.4821L111.188 67.1515L111.769 67.2814ZM116.625 62.7947H130.377V63.3906H116.625V62.7947ZM60.8433 3.88282C59.1791 -0.730229 52.5497 -0.406966 51.3421 4.34611L50.7645 4.19937C52.1167 -1.1231 59.5404 -1.48507 61.4039 3.68058L60.8433 3.88282ZM95.1032 97.0862C96.7931 101.77 103.553 101.342 104.638 96.4821L105.22 96.612C104.005 102.054 96.435 102.533 94.5426 97.2886L95.1032 97.0862ZM111.188 67.1515C111.756 64.6052 114.016 62.7947 116.625 62.7947V63.3906C114.295 63.3906 112.277 65.0075 111.769 67.2814L111.188 67.1515Z" fill="url(#paint0_linear_1_473)" fill-opacity="0.1"/>
<defs>
<linearGradient id="paint0_linear_1_473" x1="44.5981" y1="46.5688" x2="11.106" y2="160.922" gradientUnits="userSpaceOnUse">
<stop stop-color="#E7E7E7"/>
<stop offset="1" stop-color="#E7E7E7" stop-opacity="0"/>
</linearGradient>
</defs>
</svg>
