<svg width="13" height="18" viewBox="0 0 13 18" fill="none" xmlns="http://www.w3.org/2000/svg">
<path d="M2.06597 0.538195H7.2309V4.67014C7.2309 5.25119 7.68283 5.70313 8.26389 5.70313H12.3958V15C12.3958 16.1621 11.4597 17.066 10.3299 17.066H2.06597C0.903863 17.066 0 16.1621 0 15V2.60417C0 1.47434 0.903863 0.538195 2.06597 0.538195ZM8.26389 0.538195L12.3958 4.67014H8.26389V0.538195ZM6.97266 8.54384C6.97266 8.12419 6.61757 7.7691 6.19792 7.7691C5.74598 7.7691 5.42318 8.12419 5.42318 8.54384V14.2253C5.42318 14.6772 5.74598 15 6.19792 15C6.61757 15 6.97266 14.6772 6.97266 14.2253V8.54384ZM9.81337 10.6098C9.81337 10.1902 9.45828 9.83507 9.03863 9.83507C8.5867 9.83507 8.26389 10.1902 8.26389 10.6098V14.2253C8.26389 14.6772 8.5867 15 9.03863 15C9.45828 15 9.81337 14.6772 9.81337 14.2253V10.6098ZM4.13194 12.6758C4.13194 12.2561 3.77686 11.901 3.3572 11.901C2.90527 11.901 2.58247 12.2561 2.58247 12.6758V14.2253C2.58247 14.6772 2.90527 15 3.3572 15C3.77686 15 4.13194 14.6772 4.13194 14.2253V12.6758Z" fill="#213452"/>
</svg>
