<svg width="24" height="24" viewBox="0 0 24 24" fill="none" xmlns="http://www.w3.org/2000/svg">
<circle cx="12" cy="12" r="7" fill="white"/>
<path d="M12.0234 24C7.71094 24 3.77344 21.75 1.61719 18C-0.539062 14.2969 -0.539062 9.75 1.61719 6C3.77344 2.29688 7.71094 0 12.0234 0C16.2891 0 20.2266 2.29688 22.3828 6C24.5391 9.75 24.5391 14.2969 22.3828 18C20.2266 21.75 16.2891 24 12.0234 24ZM17.3203 9.79688H17.2734C17.7422 9.375 17.7422 8.67188 17.2734 8.20312C16.8516 7.78125 16.1484 7.78125 15.7266 8.20312L10.5234 13.4531L8.32031 11.25C7.85156 10.7812 7.14844 10.7812 6.72656 11.25C6.25781 11.6719 6.25781 12.375 6.72656 12.7969L9.72656 15.7969C10.1484 16.2656 10.8516 16.2656 11.3203 15.7969L17.3203 9.79688Z" fill="#48DBB4"/>
</svg>
