<svg width="226" height="189" viewBox="0 0 226 189" fill="none" xmlns="http://www.w3.org/2000/svg">
<g filter="url(#filter0_b_1_238)">
<path d="M194.215 3.49672L193.778 3.68512C187.531 6.37628 184.407 7.72186 182.653 10.3878C180.898 13.0538 180.898 16.4549 180.898 23.257V31.551C180.898 36.0578 180.898 38.3112 181.769 40.3304C182.639 42.3495 184.265 43.8853 187.518 46.9569C192.215 51.3929 197.219 56.0704 198.624 57.2248C200.366 58.6558 204.578 59.2167 207.828 58.2024C208.015 58.1441 208.108 58.115 209.273 57.386C210.439 56.657 210.787 56.2873 211.483 55.5479L219.688 46.8305C222.549 43.7907 223.98 42.2708 224.731 40.3783C225.481 38.4859 225.481 36.3986 225.481 32.224V23.6765C225.481 16.6817 225.481 13.1843 223.646 10.477C221.811 7.76957 218.563 6.47383 212.066 3.88235L210.542 3.27447C206.491 1.65888 204.466 0.851082 202.344 0.879965C200.223 0.908848 198.22 1.77147 194.215 3.49672Z" fill="white" fill-opacity="0.05"/>
<path d="M193.899 3.9656L194.336 3.77719C198.364 2.04207 200.302 1.21319 202.349 1.18533C204.395 1.15747 206.355 1.93329 210.429 3.55813L211.953 4.16601C215.207 5.46424 217.625 6.42919 219.461 7.40579C221.29 8.37884 222.514 9.35052 223.393 10.6483C224.273 11.9461 224.722 13.4432 224.948 15.5023C225.175 17.5689 225.176 20.1724 225.176 23.6765V32.224C225.176 36.4224 225.171 38.4401 224.447 40.2658C223.723 42.0914 222.343 43.5641 219.466 46.6212L211.26 55.3386L211.254 55.3451C210.572 56.0692 210.243 56.419 209.111 57.1271C207.977 57.8368 207.884 57.8655 207.752 57.9064C207.747 57.9079 207.742 57.9094 207.737 57.9109C206.16 58.4033 204.338 58.5155 202.695 58.3272C201.044 58.1378 199.623 57.6506 198.818 56.9888C197.423 55.8431 192.43 51.1758 187.727 46.7348C184.456 43.6458 182.889 42.1574 182.049 40.2095C181.21 38.2617 181.204 36.0837 181.204 31.551V23.257C181.204 19.8494 181.204 17.3178 181.421 15.3041C181.638 13.2978 182.067 11.8337 182.908 10.5557C183.749 9.27772 184.924 8.30427 186.681 7.31183C188.444 6.31575 190.769 5.31378 193.899 3.9656Z" stroke="url(#paint0_linear_1_238)" stroke-opacity="0.4" stroke-width="0.610786"/>
</g>
<path d="M194.44 28.3738C194.44 23.3197 198.527 19.1977 203.617 19.1977C208.671 19.1977 212.793 23.3197 212.793 28.3738C212.793 33.4636 208.671 37.5499 203.617 37.5499C198.527 37.5499 194.44 33.4636 194.44 28.3738ZM207.739 26.7966C208.133 26.4023 208.133 25.793 207.739 25.3987C207.344 25.0044 206.735 25.0044 206.341 25.3987L202.47 29.2699L200.857 27.6927C200.462 27.2984 199.853 27.2984 199.459 27.6927C199.064 28.087 199.064 28.6964 199.459 29.0907L201.753 31.3847C202.147 31.779 202.756 31.779 203.151 31.3847L207.739 26.7966Z" fill="white"/>
<rect x="171" y="82" width="53" height="133" rx="11" fill="#48DBB4" fill-opacity="0.2"/>
<rect opacity="0.1" x="57" y="59" width="53" height="156" rx="11" fill="#48DBB4"/>
<rect y="42" width="53" height="173" rx="11" fill="#48DBB4"/>
<rect x="114" y="145" width="53" height="70" rx="11" fill="#48DBB4"/>
<path opacity="0.1" d="M125.086 17.5352C135.724 34.0576 145.292 37.1514 167.086 34.5352" stroke="white"/>
<rect x="57" y="109" width="53" height="106" rx="11" fill="#48DBB4"/>
<rect x="114" y="96" width="53" height="119" rx="11" fill="#48DBB4" fill-opacity="0.2"/>
<defs>
<filter id="filter0_b_1_238" x="136.208" y="-43.8107" width="133.963" height="147.219" filterUnits="userSpaceOnUse" color-interpolation-filters="sRGB">
<feFlood flood-opacity="0" result="BackgroundImageFix"/>
<feGaussianBlur in="BackgroundImageFix" stdDeviation="22.345"/>
<feComposite in2="SourceAlpha" operator="in" result="effect1_backgroundBlur_1_238"/>
<feBlend mode="normal" in="SourceGraphic" in2="effect1_backgroundBlur_1_238" result="shape"/>
</filter>
<linearGradient id="paint0_linear_1_238" x1="184.45" y1="-3.64594" x2="220.844" y2="45.6976" gradientUnits="userSpaceOnUse">
<stop stop-color="#C3C3C3"/>
<stop offset="1" stop-color="white" stop-opacity="0"/>
</linearGradient>
</defs>
</svg>
