<svg width="277" height="88" viewBox="0 0 277 88" fill="none" xmlns="http://www.w3.org/2000/svg">
<path d="M40.5204 43.6336C22.6921 44.5506 0 27.5411 0 27.5411V88H277V1.89372C248.724 18.1942 237.408 0.200321 201.938 1.89372C176.964 3.08602 170.453 35.0306 147.468 27.5411C121.355 19.0323 107.138 -3.77344 79.7122 1.89372C54.2276 7.15976 66.8765 42.2781 40.5204 43.6336Z" fill="url(#paint0_linear_1_249)"/>
<path d="M1.3125 27.3886C1.3125 27.3886 23.7357 44.3003 41.3528 43.3886C67.3966 42.0408 54.8976 7.12436 80.0803 1.88859C107.181 -3.74601 121.229 18.9287 147.033 27.3886C169.746 34.835 176.179 3.07404 200.858 1.88859C235.907 0.204916 247.09 18.0953 275.031 1.88859" stroke="#48DBB4" stroke-width="2" stroke-linecap="round"/>
<defs>
<linearGradient id="paint0_linear_1_249" x1="139.156" y1="-42.5" x2="138.776" y2="88.0008" gradientUnits="userSpaceOnUse">
<stop stop-color="#48DBB4"/>
<stop offset="1" stop-color="#121B27" stop-opacity="0"/>
</linearGradient>
</defs>
</svg>
