<svg width="15" height="19" viewBox="0 0 15 19" fill="none" xmlns="http://www.w3.org/2000/svg">
<path d="M9.1875 8.125H13.125C13.582 8.125 14.0039 8.44141 14.1445 8.86328C14.3203 9.32031 14.2148 9.8125 13.8633 10.1289L4.86328 18.0039C4.44141 18.3203 3.87891 18.3555 3.45703 18.0391C3.03516 17.7578 2.85938 17.1953 3.07031 16.7031L5.77734 10.375H1.83984C1.38281 10.375 0.960938 10.0938 0.820312 9.67188C0.644531 9.21484 0.75 8.72266 1.10156 8.40625L10.1016 0.53125C10.5234 0.214844 11.0859 0.179688 11.5078 0.496094C11.9297 0.777344 12.1055 1.33984 11.8945 1.83203L9.1875 8.125Z" fill="white"/>
</svg>
