<svg width="217" height="70" viewBox="0 0 217 70" fill="none" xmlns="http://www.w3.org/2000/svg">
<path d="M31.7576 34.5292C17.7921 35.2475 0.0166016 21.9234 0.0166016 21.9234V69.2828H217V1.8329C194.85 14.6016 185.986 0.506397 158.201 1.8329C138.638 2.76687 133.538 27.7901 115.533 21.9233C95.0777 15.2581 83.9414 -2.60639 62.4578 1.8329C42.4949 5.95796 52.4032 33.4673 31.7576 34.5292Z" fill="url(#paint0_linear_1_1024)"/>
<path d="M1.04468 21.8039C1.04468 21.8039 18.6095 35.0514 32.4096 34.3372C52.8106 33.2815 43.0197 5.93023 62.7461 1.82887C83.9752 -2.5849 94.9794 15.177 115.192 21.8039C132.984 27.6369 138.024 2.75747 157.355 1.82887C184.811 0.509997 193.57 14.5242 215.457 1.82887" stroke="#48DBB4" stroke-width="1.56667" stroke-linecap="round"/>
<defs>
<linearGradient id="paint0_linear_1_1024" x1="109.022" y1="-32.9422" x2="108.724" y2="69.2834" gradientUnits="userSpaceOnUse">
<stop stop-color="#48DBB4"/>
<stop offset="1" stop-color="#121B27" stop-opacity="0"/>
</linearGradient>
</defs>
</svg>
