<svg width="11" height="15" viewBox="0 0 11 15" fill="none" xmlns="http://www.w3.org/2000/svg">
<path d="M4.88778 14.2429C3.46327 12.4622 0.285512 8.21609 0.285512 5.80537C0.285512 2.90156 2.61404 0.545633 5.54525 0.545633C8.44907 0.545633 10.805 2.90156 10.805 5.80537C10.805 8.21609 7.59984 12.4622 6.17532 14.2429C5.84659 14.6538 5.21652 14.6538 4.88778 14.2429ZM5.54525 7.55862C6.50406 7.55862 7.2985 6.79157 7.2985 5.80537C7.2985 4.84657 6.50406 4.05213 5.54525 4.05213C4.55905 4.05213 3.79201 4.84657 3.79201 5.80537C3.79201 6.79157 4.55905 7.55862 5.54525 7.55862Z" fill="white"/>
</svg>
