<svg width="121" height="171" viewBox="0 0 121 171" fill="none" xmlns="http://www.w3.org/2000/svg">
<mask id="mask0_1_642" style="mask-type:alpha" maskUnits="userSpaceOnUse" x="0" y="0" width="121" height="163">
<rect x="0.313462" y="0.313462" width="120.373" height="162.373" rx="11.6865" fill="#213452" stroke="url(#paint0_linear_1_642)" stroke-width="0.626923"/>
</mask>
<g mask="url(#mask0_1_642)">
<g filter="url(#filter0_b_1_642)">
<path d="M91.6844 43.0044L91.4561 43.1027C88.1962 44.507 86.5662 45.2092 85.6507 46.6003C84.7353 47.9915 84.7353 49.7663 84.7353 53.3159V57.6439C84.7353 59.9957 84.7353 61.1716 85.1894 62.2252C85.6436 63.2789 86.4922 64.0803 88.1894 65.6831C90.6405 67.9979 93.2518 70.4388 93.985 71.0412C94.8939 71.7879 97.0922 72.0806 98.788 71.5514C98.8854 71.5209 98.9342 71.5057 99.5421 71.1253C100.15 70.7449 100.332 70.552 100.695 70.1662L104.977 65.6172C106.47 64.0309 107.216 63.2378 107.608 62.2502C108 61.2627 108 60.1735 108 57.9951V53.5348C108 49.8847 108 48.0596 107.042 46.6469C106.085 45.2341 104.39 44.5579 100.999 43.2056L100.204 42.8884C98.0904 42.0453 97.0336 41.6238 95.9264 41.6389C94.8192 41.6539 93.7743 42.1041 91.6844 43.0044Z" fill="white" fill-opacity="0.05"/>
<path d="M91.5192 43.249L91.7474 43.1507C93.8493 42.2453 94.8605 41.8128 95.9286 41.7982C96.9966 41.7837 98.0193 42.1885 100.145 43.0364L100.94 43.3536C102.639 44.0311 103.9 44.5346 104.858 45.0442C105.813 45.552 106.451 46.0591 106.91 46.7363C107.369 47.4135 107.604 48.1947 107.722 49.2692C107.84 50.3477 107.84 51.7062 107.84 53.5348V57.9951C107.84 60.1859 107.838 61.2388 107.46 62.1915C107.082 63.1442 106.362 63.9127 104.861 65.5079L100.579 70.0569L100.576 70.0603C100.22 70.4382 100.048 70.6207 99.4576 70.9902C98.8657 71.3605 98.8171 71.3756 98.748 71.3969C98.7455 71.3977 98.743 71.3984 98.7405 71.3992C97.9172 71.6562 96.9665 71.7147 96.1096 71.6165C95.2479 71.5176 94.5065 71.2634 94.0862 70.9181C93.3584 70.3202 90.7526 67.8847 88.2988 65.5672C86.5919 63.9553 85.7739 63.1786 85.3358 62.1621C84.8976 61.1457 84.8946 60.0092 84.8946 57.6439V53.3159C84.8946 51.5377 84.8948 50.2166 85.0081 49.1658C85.121 48.1189 85.345 47.3548 85.7839 46.688C86.2227 46.0211 86.8358 45.5131 87.7526 44.9952C88.6729 44.4754 89.8861 43.9526 91.5192 43.249Z" stroke="url(#paint1_linear_1_642)" stroke-opacity="0.4" stroke-width="0.318726"/>
</g>
<path d="M91.8007 56.2017C91.8007 53.5644 93.933 51.4133 96.589 51.4133C99.2264 51.4133 101.377 53.5644 101.377 56.2017C101.377 58.8577 99.2264 60.9901 96.589 60.9901C93.933 60.9901 91.8007 58.8577 91.8007 56.2017ZM98.7401 55.3787C98.9458 55.173 98.9458 54.855 98.7401 54.6492C98.5343 54.4435 98.2163 54.4435 98.0106 54.6492L95.9905 56.6693L95.1488 55.8463C94.9431 55.6406 94.6251 55.6406 94.4193 55.8463C94.2136 56.0521 94.2136 56.37 94.4193 56.5758L95.6164 57.7729C95.8222 57.9786 96.1401 57.9786 96.3459 57.7729L98.7401 55.3787Z" fill="white"/>
<path opacity="0.1" d="M55.6103 50.332C61.1615 58.9539 66.1542 60.5684 77.527 59.2031" stroke="white" stroke-width="0.521828"/>
<rect x="13" y="62" width="23" height="109" rx="4.68328" fill="#48DBB4"/>
<rect opacity="0.1" x="37" y="73" width="23" height="98" rx="4.68328" fill="#48DBB4"/>
<rect x="37" y="104" width="23" height="67" rx="4.68328" fill="#48DBB4"/>
<rect x="62" y="96" width="22" height="75" rx="4.68328" fill="#48DBB4" fill-opacity="0.2"/>
<rect x="86" y="87" width="22" height="84" rx="4.68328" fill="#48DBB4" fill-opacity="0.2"/>
<rect x="62" y="127" width="22" height="44" rx="4.68328" fill="#48DBB4"/>
</g>
<defs>
<filter id="filter0_b_1_642" x="61.4148" y="18.318" width="69.9055" height="76.8233" filterUnits="userSpaceOnUse" color-interpolation-filters="sRGB">
<feFlood flood-opacity="0" result="BackgroundImageFix"/>
<feGaussianBlur in="BackgroundImageFix" stdDeviation="11.6602"/>
<feComposite in2="SourceAlpha" operator="in" result="effect1_backgroundBlur_1_642"/>
<feBlend mode="normal" in="SourceGraphic" in2="effect1_backgroundBlur_1_642" result="shape"/>
</filter>
<linearGradient id="paint0_linear_1_642" x1="-7.01788e-07" y1="5.57089" x2="153.423" y2="99.9898" gradientUnits="userSpaceOnUse">
<stop stop-color="white" stop-opacity="0.15"/>
<stop offset="1" stop-color="white" stop-opacity="0"/>
</linearGradient>
<linearGradient id="paint1_linear_1_642" x1="86.5888" y1="39.2771" x2="105.58" y2="65.026" gradientUnits="userSpaceOnUse">
<stop stop-color="#C3C3C3"/>
<stop offset="1" stop-color="white" stop-opacity="0"/>
</linearGradient>
</defs>
</svg>
