<svg width="178" height="149" viewBox="0 0 178 149" fill="none" xmlns="http://www.w3.org/2000/svg">
<rect x="45" y="75.9504" width="41.5692" height="73.0496" rx="8.61667" fill="#48DBB4"/>
<rect x="134.467" y="65.0664" width="41.5167" height="104.183" rx="8.61667" fill="#48DBB4" fill-opacity="0.2"/>
<rect x="89.8164" y="76.0332" width="41.5167" height="93.2167" rx="8.61667" fill="#48DBB4" fill-opacity="0.2"/>
<rect opacity="0.1" x="45.167" y="47.0488" width="41.5167" height="122.2" rx="8.61667" fill="#48DBB4"/>
<rect x="0.516602" y="33.7324" width="41.5167" height="135.517" rx="8.61667" fill="#48DBB4"/>
<rect x="89.7059" y="100.759" width="41.5692" height="48.2403" rx="8.61667" fill="#48DBB4"/>
<g filter="url(#filter0_b_1_1013)">
<path d="M153.297 2.98555L152.96 3.11338C147.742 5.08814 145.134 6.07552 143.655 8.21679C142.176 10.3581 142.176 13.1473 142.176 18.7258V21.0724C142.176 24.912 142.176 26.8319 142.969 28.5189C143.762 30.206 145.228 31.421 148.162 33.851C151.599 36.6988 155.055 39.5298 156.078 40.2684C157.447 41.2561 160.759 41.6423 163.31 40.9386C163.491 40.8887 163.581 40.8638 164.463 40.3705C165.344 39.8772 165.632 39.6085 166.208 39.0712L171.841 33.8134C174.454 31.3742 175.76 30.1547 176.451 28.5634C177.143 26.9721 177.143 25.1848 177.143 21.6103V19.0336C177.143 13.3146 177.143 10.4552 175.605 8.28606C174.066 6.11695 171.368 5.1712 165.971 3.2797L164.728 2.8441C161.887 1.84852 160.467 1.35072 158.993 1.36896C157.52 1.38719 156.112 1.91998 153.297 2.98555Z" fill="white" fill-opacity="0.05"/>
<path d="M153.044 3.33711L153.382 3.20928C156.213 2.1377 157.575 1.62575 158.996 1.60816C160.418 1.59057 161.792 2.06866 164.649 3.06986L165.892 3.50546C168.595 4.45301 170.604 5.15743 172.131 5.89422C173.652 6.62836 174.672 7.38479 175.409 8.42445C176.147 9.4641 176.523 10.6772 176.713 12.3555C176.903 14.0399 176.904 16.1687 176.904 19.0336V21.6103C176.904 25.2054 176.899 26.933 176.232 28.468C175.565 30.0031 174.305 31.1853 171.677 33.6385L166.045 38.8963L166.041 38.8998C165.475 39.4281 165.202 39.6826 164.346 40.1617C163.488 40.6416 163.4 40.6658 163.259 40.7044L163.246 40.708C162.004 41.0507 160.569 41.1294 159.274 40.9998C157.973 40.8693 156.852 40.532 156.218 40.0744C155.203 39.3418 151.756 36.5179 148.314 33.6668C145.364 31.2227 143.95 30.0446 143.185 28.4171C142.42 26.7897 142.415 24.9343 142.415 21.0724V18.7258C142.415 15.9312 142.415 13.8548 142.598 12.2088C142.781 10.5687 143.142 9.37912 143.851 8.35275C144.56 7.32639 145.545 6.56682 147.014 5.81565C148.489 5.06174 150.431 4.32638 153.044 3.33711Z" stroke="url(#paint0_linear_1_1013)" stroke-opacity="0.4" stroke-width="0.478449"/>
</g>
<path d="M152.796 20.7785C152.796 16.8195 155.997 13.5905 159.984 13.5905C163.943 13.5905 167.172 16.8195 167.172 20.7785C167.172 24.7656 163.943 27.9664 159.984 27.9664C155.997 27.9664 152.796 24.7656 152.796 20.7785ZM163.213 19.5431C163.522 19.2342 163.522 18.7569 163.213 18.448C162.904 18.1392 162.427 18.1392 162.118 18.448L159.086 21.4804L157.822 20.245C157.513 19.9361 157.036 19.9361 156.727 20.245C156.418 20.5539 156.418 21.0312 156.727 21.34L158.524 23.137C158.833 23.4459 159.31 23.4459 159.619 23.137L163.213 19.5431Z" fill="white"/>
<path opacity="0.1" d="M98.501 14.5684C106.834 27.511 114.329 29.9344 131.401 27.885" stroke="white" stroke-width="0.783333"/>
<defs>
<filter id="filter0_b_1_1013" x="107.168" y="-33.6386" width="104.982" height="109.944" filterUnits="userSpaceOnUse" color-interpolation-filters="sRGB">
<feFlood flood-opacity="0" result="BackgroundImageFix"/>
<feGaussianBlur in="BackgroundImageFix" stdDeviation="17.5036"/>
<feComposite in2="SourceAlpha" operator="in" result="effect1_backgroundBlur_1_1013"/>
<feBlend mode="normal" in="SourceGraphic" in2="effect1_backgroundBlur_1_1013" result="shape"/>
</filter>
<linearGradient id="paint0_linear_1_1013" x1="144.961" y1="-1.68056" x2="168.923" y2="35.2943" gradientUnits="userSpaceOnUse">
<stop stop-color="#C3C3C3"/>
<stop offset="1" stop-color="white" stop-opacity="0"/>
</linearGradient>
</defs>
</svg>
