<svg width="7" height="10" viewBox="0 0 7 10" fill="none" xmlns="http://www.w3.org/2000/svg">
<path d="M4.6082 0.299899L6.90645 2.59814H4.6082V0.299899ZM4.03364 2.59814C4.03364 2.92133 4.28501 3.1727 4.6082 3.1727H6.90645V8.63103C6.90645 9.11582 6.51144 9.49287 6.04461 9.49287H0.87356C0.388774 9.49287 0.0117188 9.11582 0.0117188 8.63103V1.16174C0.0117188 0.69491 0.388774 0.299899 0.87356 0.299899H4.03364V2.59814ZM2.30996 8.12829V6.85348C2.30996 6.74575 2.18428 6.62007 2.07655 6.62007H1.3763C1.26857 6.62007 1.16084 6.74575 1.16084 6.85348V8.12829C1.16084 8.23602 1.26857 8.34375 1.3763 8.34375H2.07655C2.18428 8.34375 2.30996 8.23602 2.30996 8.12829ZM4.03364 8.12829V4.55524C4.03364 4.44751 3.90796 4.32182 3.80023 4.32182H3.09998C2.99225 4.32182 2.88452 4.44751 2.88452 4.55524V8.12829C2.88452 8.23602 2.99225 8.34375 3.09998 8.34375H3.80023C3.90796 8.34375 4.03364 8.23602 4.03364 8.12829ZM4.82367 5.47095C4.71593 5.47095 4.6082 5.59663 4.6082 5.70436V8.12829C4.6082 8.23602 4.71593 8.34375 4.82367 8.34375H5.52391C5.63164 8.34375 5.75733 8.23602 5.75733 8.12829V5.70436C5.75733 5.59663 5.63164 5.47095 5.52391 5.47095H4.82367Z" fill="#213452"/>
</svg>
