<svg width="120" height="261" viewBox="0 0 120 261" fill="none" xmlns="http://www.w3.org/2000/svg">
<mask id="mask0_1_1408" style="mask-type:alpha" maskUnits="userSpaceOnUse" x="0" y="0" width="120" height="244">
<rect x="0.391667" y="0.391667" width="119.217" height="243.217" rx="15.275" fill="#213452" stroke="url(#paint0_linear_1_1408)" stroke-width="0.783333"/>
</mask>
<g mask="url(#mask0_1_1408)">
<rect x="9" y="97" width="24" height="164" rx="6" fill="#48DBB4"/>
<rect opacity="0.1" x="35" y="114" width="24" height="147" rx="6" fill="#48DBB4"/>
<rect x="35" y="162" width="24" height="99" rx="6" fill="#48DBB4"/>
<rect x="61" y="147" width="24" height="114" rx="6" fill="#48DBB4" fill-opacity="0.2"/>
<rect x="87" y="135" width="24" height="126" rx="6" fill="#48DBB4" fill-opacity="0.2"/>
<rect x="61" y="195" width="24" height="66" rx="6" fill="#48DBB4"/>
<g filter="url(#filter0_b_1_1408)">
<path d="M88.5683 60.7391L88.2257 60.8867C83.332 62.9948 80.8852 64.0488 79.511 66.1371C78.1367 68.2255 78.1367 70.8896 78.1367 76.218V82.715C78.1367 86.2453 78.1367 88.0105 78.8185 89.5921C79.5003 91.1738 80.7741 92.3768 83.3218 94.7829C87.0012 98.2578 90.9212 101.922 92.0218 102.826C93.3862 103.947 96.6861 104.386 99.2317 103.592C99.378 103.546 99.4511 103.523 100.364 102.952C101.276 102.381 101.549 102.092 102.094 101.513L108.522 94.6839C110.763 92.3027 111.884 91.1121 112.472 89.6297C113.06 88.1473 113.06 86.5122 113.06 83.2421V76.5466C113.06 71.0674 113.06 68.3277 111.623 66.2069C110.185 64.0862 107.641 63.0712 102.551 61.0412L101.357 60.565C98.1845 59.2995 96.5981 58.6667 94.9361 58.6893C93.274 58.7119 91.7054 59.3877 88.5683 60.7391Z" fill="white" fill-opacity="0.05"/>
<path d="M88.3203 61.1064L88.6629 60.9588C91.818 59.5996 93.336 58.9503 94.9393 58.9285C96.5427 58.9067 98.0777 59.5144 101.269 60.7872L102.463 61.2634C105.012 62.2803 106.906 63.0362 108.344 63.8012C109.776 64.5634 110.736 65.3246 111.425 66.3412C112.113 67.3577 112.465 68.5305 112.642 70.1435C112.82 71.7623 112.821 73.8017 112.821 76.5466V83.2421C112.821 86.5308 112.817 88.1114 112.25 89.5415C111.682 90.9716 110.602 92.1252 108.348 94.5199L101.92 101.349L101.915 101.354C101.381 101.921 101.123 102.195 100.237 102.75C99.3484 103.305 99.2755 103.328 99.1717 103.36C99.168 103.361 99.1643 103.362 99.1604 103.364C97.9246 103.749 96.4975 103.837 95.211 103.69C93.9176 103.541 92.8046 103.16 92.1737 102.641C91.0812 101.744 87.1696 98.0877 83.486 94.609C80.9238 92.1892 79.6959 91.0233 79.0382 89.4974C78.3805 87.9716 78.3759 86.2655 78.3759 82.715V76.218C78.3759 73.5487 78.3763 71.5656 78.5463 69.9882C78.7158 68.4166 79.052 67.2697 79.7108 66.2686C80.3696 65.2675 81.2899 64.505 82.6662 63.7276C84.0476 62.9473 85.8688 62.1625 88.3203 61.1064Z" stroke="url(#paint1_linear_1_1408)" stroke-opacity="0.4" stroke-width="0.478449"/>
</g>
<path d="M88.7441 80.0426C88.7441 76.0836 91.945 72.8547 95.9321 72.8547C99.8911 72.8547 103.12 76.0836 103.12 80.0426C103.12 84.0297 99.8911 87.2306 95.9321 87.2306C91.945 87.2306 88.7441 84.0297 88.7441 80.0426ZM99.1611 78.8072C99.4699 78.4983 99.4699 78.021 99.1611 77.7122C98.8522 77.4033 98.3749 77.4033 98.066 77.7122L95.0336 80.7446L93.7701 79.5091C93.4612 79.2003 92.9839 79.2003 92.6751 79.5091C92.3662 79.818 92.3662 80.2953 92.6751 80.6042L94.472 82.4012C94.7809 82.71 95.2582 82.71 95.5671 82.4012L99.1611 78.8072Z" fill="white"/>
<path opacity="0.1" d="M34.418 71.7363C42.7511 84.6789 50.2457 87.1024 67.318 85.053" stroke="white" stroke-width="0.783333"/>
</g>
<defs>
<filter id="filter0_b_1_1408" x="43.1296" y="23.6816" width="104.937" height="115.322" filterUnits="userSpaceOnUse" color-interpolation-filters="sRGB">
<feFlood flood-opacity="0" result="BackgroundImageFix"/>
<feGaussianBlur in="BackgroundImageFix" stdDeviation="17.5036"/>
<feComposite in2="SourceAlpha" operator="in" result="effect1_backgroundBlur_1_1408"/>
<feBlend mode="normal" in="SourceGraphic" in2="effect1_backgroundBlur_1_1408" result="shape"/>
</filter>
<linearGradient id="paint0_linear_1_1408" x1="-6.95988e-07" y1="8.33924" x2="179.88" y2="81.6796" gradientUnits="userSpaceOnUse">
<stop stop-color="white" stop-opacity="0.15"/>
<stop offset="1" stop-color="white" stop-opacity="0"/>
</linearGradient>
<linearGradient id="paint1_linear_1_1408" x1="80.9191" y1="55.144" x2="109.428" y2="93.7964" gradientUnits="userSpaceOnUse">
<stop stop-color="#C3C3C3"/>
<stop offset="1" stop-color="white" stop-opacity="0"/>
</linearGradient>
</defs>
</svg>
