<svg width="43" height="60" viewBox="0 0 43 60" fill="none" xmlns="http://www.w3.org/2000/svg">
<rect x="0.516602" y="0.0839844" width="42.3" height="59.5333" rx="9.4" fill="#48DBB4"/>
<path d="M21.6395 31.0846C20.1047 31.0846 18.8391 29.8459 18.8661 28.2842C18.8661 26.7493 20.1047 25.4837 21.6395 25.4837C23.1744 25.4837 24.44 26.7493 24.44 28.2842C24.44 29.8459 23.2013 31.0846 21.6395 31.0846ZM22.9859 31.9462C25.1131 31.9462 26.8365 33.5619 26.8365 35.5545C26.8365 35.9584 26.4864 36.2546 26.0556 36.2546H17.2504C16.8196 36.2546 16.4965 35.9584 16.4965 35.5545C16.4965 33.5619 18.1929 31.9462 20.3201 31.9462H22.9859ZM26.8365 26.7762C25.6248 26.7762 24.6823 25.8338 24.6823 24.6221C24.6823 23.4373 25.6248 22.4679 26.8365 22.4679C28.0213 22.4679 28.9906 23.4373 28.9906 24.6221C28.9906 25.8338 28.0213 26.7762 26.8365 26.7762ZM17.9775 28.2842C17.9775 29.1997 18.3275 30.0344 18.893 30.6537H13.5076C13.2383 30.6537 13.0498 30.4383 13.0498 30.1691C13.0498 28.7689 14.1 27.6379 15.4194 27.6379H17.0619C17.412 27.6379 17.7351 27.7187 18.0313 27.8803C18.0044 28.0149 17.9775 28.1495 17.9775 28.2842ZM16.4965 26.7762C15.2848 26.7762 14.3423 25.8338 14.3423 24.6221C14.3423 23.4373 15.2848 22.4679 16.4965 22.4679C17.6813 22.4679 18.6506 23.4373 18.6506 24.6221C18.6506 25.8338 17.6813 26.7762 16.4965 26.7762ZM27.8866 27.6379C29.2061 27.6379 30.2831 28.7689 30.2831 30.1691C30.2831 30.4383 30.0677 30.6537 29.7985 30.6537H24.413C24.9785 30.0344 25.3016 29.1997 25.3016 28.2842C25.3016 28.1495 25.2747 28.0149 25.2747 27.8803C25.5709 27.7456 25.894 27.6379 26.2441 27.6379H27.8866Z" fill="white"/>
</svg>
