<svg width="17" height="18" viewBox="0 0 17 18" fill="none" xmlns="http://www.w3.org/2000/svg">
<path d="M15.0429 3.24978C15.6239 3.50803 16.0113 4.0568 16.0113 4.67014C16.0113 12.934 9.91021 17.066 8.23161 17.066C6.61757 17.066 0.516493 12.9986 0.516493 4.67014C0.516493 4.0568 0.871582 3.50803 1.45264 3.24978L7.65055 0.667319C7.81196 0.602757 8.0702 0.570476 8.26389 0.570476C8.42529 0.570476 8.68354 0.602757 8.84494 0.667319L15.0429 3.24978ZM11.3628 6.99436C11.3628 6.76839 11.1692 6.21962 10.5881 6.21962C10.3621 6.21962 10.1362 6.28418 9.97477 6.47787L7.42459 9.4477L6.45616 8.51156C6.32704 8.35015 6.13335 8.28559 5.93967 8.28559C5.48774 8.28559 5.16493 8.64068 5.16493 9.06033C5.16493 9.2863 5.22949 9.47998 5.3909 9.6091L6.94037 11.1586C7.0695 11.2877 7.26318 11.3845 7.48915 11.3845C7.55371 11.3845 7.84424 11.3845 8.0702 11.1263L11.1692 7.51085C11.2983 7.38173 11.3628 7.18804 11.3628 6.99436Z" fill="#213452"/>
</svg>
