<svg width="9" height="10" viewBox="0 0 9 10" fill="none" xmlns="http://www.w3.org/2000/svg">
<path d="M8.26646 1.80812C8.58965 1.95176 8.80511 2.257 8.80511 2.59814C8.80511 7.19463 5.41161 9.49287 4.47795 9.49287C3.58019 9.49287 0.186694 7.23054 0.186694 2.59814C0.186694 2.257 0.3842 1.95176 0.70739 1.80812L4.15475 0.371719C4.24453 0.335809 4.38817 0.317854 4.4959 0.317854C4.58568 0.317854 4.72932 0.335809 4.81909 0.371719L8.26646 1.80812ZM6.21958 3.8909C6.21958 3.76522 6.11185 3.45998 5.78866 3.45998C5.66298 3.45998 5.53729 3.49589 5.44752 3.60362L4.02907 5.25549L3.49042 4.73479C3.4186 4.64502 3.31087 4.60911 3.20314 4.60911C2.95177 4.60911 2.77222 4.80661 2.77222 5.04003C2.77222 5.16571 2.80813 5.27344 2.8979 5.34526L3.75974 6.2071C3.83156 6.27892 3.93929 6.33279 4.06498 6.33279C4.10089 6.33279 4.26248 6.33279 4.38817 6.18915L6.11185 4.17818C6.18367 4.10636 6.21958 3.99863 6.21958 3.8909Z" fill="#213452"/>
</svg>
