<svg width="303" height="328" viewBox="0 0 303 328" fill="none" xmlns="http://www.w3.org/2000/svg">
<path d="M302 116.501L302.19 133.82L287.09 125.323L302 116.501ZM125.6 330.89L77.0601 24.13L80.02 23.661L128.56 330.421L125.6 330.89ZM175.12 338.794L294.07 127.529L296.68 129L177.73 340.266L175.12 338.794ZM52.33 3H0V0H52.33V3ZM77.0601 24.13C75.1401 11.961 64.65 3 52.33 3V0C66.12 0 77.87 10.035 80.02 23.661L77.0601 24.13ZM128.56 330.421C132.27 353.866 163.47 359.477 175.12 338.794L177.73 340.266C164.69 363.427 129.75 357.143 125.6 330.89L128.56 330.421Z" fill="#E7E7E7" fill-opacity="0.1"/>
</svg>
