<svg width="467" height="670" viewBox="0 0 467 670" fill="none" xmlns="http://www.w3.org/2000/svg">
<path d="M332.149 364.555L205.873 14.5495L207.974 13.7917L334.25 363.796L332.149 364.555ZM170.271 16.2855L-34.9401 824L-37.1045 823.449L168.106 15.7357L170.271 16.2855ZM396.7 252.113L372.158 362.019L369.979 361.533L394.521 251.626L396.7 252.113ZM414.894 235.301H466.427V237.534H414.894V235.301ZM205.873 14.5495C199.637 -2.73627 174.796 -1.52496 170.271 16.2855L168.106 15.7357C173.173 -4.20842 200.991 -5.56479 207.974 13.7917L205.873 14.5495ZM334.25 363.796C340.582 381.347 365.913 379.742 369.979 361.533L372.158 362.019C367.605 382.41 339.24 384.207 332.149 364.555L334.25 363.796ZM394.521 251.626C396.652 242.085 405.118 235.301 414.894 235.301V237.534C406.164 237.534 398.603 243.592 396.7 252.113L394.521 251.626Z" fill="url(#paint0_linear_1_381)" fill-opacity="0.1"/>
<defs>
<linearGradient id="paint0_linear_1_381" x1="145" y1="174.5" x2="19.4998" y2="603" gradientUnits="userSpaceOnUse">
<stop stop-color="#E7E7E7"/>
<stop offset="1" stop-color="#E7E7E7" stop-opacity="0"/>
</linearGradient>
</defs>
</svg>
