<svg width="12" height="12" viewBox="0 0 12 12" fill="none" xmlns="http://www.w3.org/2000/svg">
<path d="M10.4827 6.348V7.25568C10.4827 7.50243 10.28 7.70512 10.0288 7.70512H9.17843C8.70255 7.70512 8.26633 7.35703 8.22668 6.88115C8.20024 6.60356 8.30599 6.34359 8.49105 6.16293C8.65408 5.9955 8.8788 5.89856 9.12555 5.89856H10.0288C10.28 5.89856 10.4827 6.10125 10.4827 6.348Z" fill="white"/>
<path d="M7.56548 6.9414C7.52583 6.47875 7.69327 6.0249 8.02814 5.69443C8.31014 5.40803 8.7023 5.24059 9.1253 5.24059H9.37645C9.49983 5.24059 9.60117 5.13925 9.58355 5.01587C9.46458 4.16106 8.72433 3.50012 7.83867 3.50012H3.43242C2.45864 3.50012 1.66992 4.28884 1.66992 5.26262L1.66992 8.347C1.66992 9.32078 2.45864 10.1095 3.43242 10.1095H7.83867C8.72873 10.1095 9.46458 9.44856 9.58355 8.59375C9.60117 8.47037 9.49983 8.36903 9.37645 8.36903H9.17817C8.34098 8.36903 7.63598 7.74334 7.56548 6.9414ZM6.5168 6.03372H3.87305C3.69239 6.03372 3.54258 5.88831 3.54258 5.70325C3.54258 5.51818 3.69239 5.37278 3.87305 5.37278H6.5168C6.69745 5.37278 6.84727 5.52259 6.84727 5.70325C6.84727 5.8839 6.69745 6.03372 6.5168 6.03372Z" fill="white"/>
<path d="M7.05052 2.541C7.16508 2.65997 7.06373 2.83622 6.8963 2.83622H3.4462C2.96592 2.83622 2.51648 2.97722 2.14195 3.21956C1.97011 3.32972 1.73658 3.21075 1.8203 3.02128C2.06705 2.44406 2.64427 2.04309 3.30961 2.04309H5.78592C6.29705 2.04309 6.75089 2.22375 7.05052 2.541Z" fill="white"/>
</svg>
